<svg id="Layer_1" data-name="Layer 1" xmlns="http://www.w3.org/2000/svg" viewBox="0 0 875.43 303.49"><defs><style>.cls-1,.cls-4{fill:#fff;}.cls-1{stroke:#fff;stroke-miterlimit:10;}.cls-2{fill:#ffc13d;}.cls-3{fill:#fc6d19;}</style></defs><title>best_offer</title><path class="cls-1" d="M2063.12,900.19a3,3,0,1,0-3,3A3,3,0,0,0,2063.12,900.19Z" transform="translate(-1445.98 -822.01)"/><path class="cls-1" d="M2081.62,900.19a3,3,0,1,0-3,3A3,3,0,0,0,2081.62,900.19Z" transform="translate(-1445.98 -822.01)"/><path class="cls-1" d="M2100.12,900.19a3,3,0,1,0-3,3A3,3,0,0,0,2100.12,900.19Z" transform="translate(-1445.98 -822.01)"/><path class="cls-1" d="M2118.61,900.19a3,3,0,1,0-3,3A3,3,0,0,0,2118.61,900.19Z" transform="translate(-1445.98 -822.01)"/><path class="cls-1" d="M2137.11,900.19a3,3,0,1,0-3,3A3,3,0,0,0,2137.11,900.19Z" transform="translate(-1445.98 -822.01)"/><path class="cls-1" d="M2155.61,900.19a3,3,0,1,0-3,3A3,3,0,0,0,2155.61,900.19Z" transform="translate(-1445.98 -822.01)"/><path class="cls-1" d="M2174.11,900.19a3,3,0,1,0-3,3A3,3,0,0,0,2174.11,900.19Z" transform="translate(-1445.98 -822.01)"/><path class="cls-1" d="M2063.12,881.69a3,3,0,1,0-3,3A3,3,0,0,0,2063.12,881.69Z" transform="translate(-1445.98 -822.01)"/><path class="cls-1" d="M2081.62,881.69a3,3,0,1,0-3,3A3,3,0,0,0,2081.62,881.69Z" transform="translate(-1445.98 -822.01)"/><path class="cls-1" d="M2100.12,881.69a3,3,0,1,0-3,3A3,3,0,0,0,2100.12,881.69Z" transform="translate(-1445.98 -822.01)"/><path class="cls-1" d="M2118.61,881.69a3,3,0,1,0-3,3A3,3,0,0,0,2118.61,881.69Z" transform="translate(-1445.98 -822.01)"/><path class="cls-1" d="M2137.11,881.69a3,3,0,1,0-3,3A3,3,0,0,0,2137.11,881.69Z" transform="translate(-1445.98 -822.01)"/><path class="cls-1" d="M2155.61,881.69a3,3,0,1,0-3,3A3,3,0,0,0,2155.61,881.69Z" transform="translate(-1445.98 -822.01)"/><path class="cls-1" d="M2174.11,881.69a3,3,0,1,0-3,3A3,3,0,0,0,2174.11,881.69Z" transform="translate(-1445.98 -822.01)"/><circle class="cls-1" cx="614.13" cy="41.17" r="3.01"/><circle class="cls-1" cx="632.63" cy="41.17" r="3.01"/><path class="cls-1" d="M2100.12,863.19a3,3,0,1,0-3,3A3,3,0,0,0,2100.12,863.19Z" transform="translate(-1445.98 -822.01)"/><path class="cls-1" d="M2118.61,863.19a3,3,0,1,0-3,3A3,3,0,0,0,2118.61,863.19Z" transform="translate(-1445.98 -822.01)"/><circle class="cls-1" cx="688.13" cy="41.17" r="3.01"/><path class="cls-1" d="M2155.61,863.19a3,3,0,1,0-3,3A3,3,0,0,0,2155.61,863.19Z" transform="translate(-1445.98 -822.01)"/><path class="cls-1" d="M2174.11,863.19a3,3,0,1,0-3,3A3,3,0,0,0,2174.11,863.19Z" transform="translate(-1445.98 -822.01)"/><path class="cls-2" d="M1452,1095.81a3,3,0,1,0-3,3A3,3,0,0,0,1452,1095.81Z" transform="translate(-1445.98 -822.01)"/><circle class="cls-2" cx="21.51" cy="273.8" r="3.01"/><circle class="cls-2" cx="40.01" cy="273.8" r="3.01"/><path class="cls-2" d="M1507.49,1095.81a3,3,0,1,0-3,3A3,3,0,0,0,1507.49,1095.81Z" transform="translate(-1445.98 -822.01)"/><path class="cls-2" d="M1526,1095.81a3,3,0,1,0-3,3A3,3,0,0,0,1526,1095.81Z" transform="translate(-1445.98 -822.01)"/><circle class="cls-2" cx="95.5" cy="273.8" r="3.01"/><path class="cls-2" d="M1563,1095.81a3,3,0,1,0-3,3A3,3,0,0,0,1563,1095.81Z" transform="translate(-1445.98 -822.01)"/><path class="cls-2" d="M1452,1077.31a3,3,0,1,0-3,3A3,3,0,0,0,1452,1077.31Z" transform="translate(-1445.98 -822.01)"/><path class="cls-2" d="M1470.49,1077.31a3,3,0,1,0-3,3A3,3,0,0,0,1470.49,1077.31Z" transform="translate(-1445.98 -822.01)"/><path class="cls-2" d="M1489,1077.31a3,3,0,1,0-3,3A3,3,0,0,0,1489,1077.31Z" transform="translate(-1445.98 -822.01)"/><path class="cls-2" d="M1507.49,1077.31a3,3,0,1,0-3,3A3,3,0,0,0,1507.49,1077.31Z" transform="translate(-1445.98 -822.01)"/><path class="cls-2" d="M1526,1077.31a3,3,0,1,0-3,3A3,3,0,0,0,1526,1077.31Z" transform="translate(-1445.98 -822.01)"/><path class="cls-2" d="M1544.49,1077.31a3,3,0,1,0-3,3A3,3,0,0,0,1544.49,1077.31Z" transform="translate(-1445.98 -822.01)"/><path class="cls-2" d="M1563,1077.31a3,3,0,1,0-3,3A3,3,0,0,0,1563,1077.31Z" transform="translate(-1445.98 -822.01)"/><path class="cls-2" d="M1452,1058.81a3,3,0,1,0-3,3A3,3,0,0,0,1452,1058.81Z" transform="translate(-1445.98 -822.01)"/><path class="cls-2" d="M1470.49,1058.81a3,3,0,1,0-3,3A3,3,0,0,0,1470.49,1058.81Z" transform="translate(-1445.98 -822.01)"/><path class="cls-2" d="M1489,1058.81a3,3,0,1,0-3,3A3,3,0,0,0,1489,1058.81Z" transform="translate(-1445.98 -822.01)"/><path class="cls-2" d="M1507.49,1058.81a3,3,0,1,0-3,3A3,3,0,0,0,1507.49,1058.81Z" transform="translate(-1445.98 -822.01)"/><path class="cls-2" d="M1526,1058.81a3,3,0,1,0-3,3A3,3,0,0,0,1526,1058.81Z" transform="translate(-1445.98 -822.01)"/><path class="cls-2" d="M1544.49,1058.81a3,3,0,1,0-3,3A3,3,0,0,0,1544.49,1058.81Z" transform="translate(-1445.98 -822.01)"/><path class="cls-2" d="M1563,1058.81a3,3,0,1,0-3,3A3,3,0,0,0,1563,1058.81Z" transform="translate(-1445.98 -822.01)"/><path class="cls-2" d="M2237.67,1125.5c-1.4,0-2.8-.06-4.22-.19l-695.85-64.1a43.7,43.7,0,0,1-39.51-47.52l11.63-126.33a43.71,43.71,0,0,1,47.53-39.51l585.05,53.89a43.73,43.73,0,0,1,31.35,17.83l99.17,136.53a43.4,43.4,0,0,1,.9,50.1A42.94,42.94,0,0,1,2237.67,1125.5ZM1553.19,852.14a39.24,39.24,0,0,0-39,35.63l-11.63,126.33a39.24,39.24,0,0,0,35.47,42.66l695.85,64.09a39.22,39.22,0,0,0,35.34-62.12L2170,922.2a39.24,39.24,0,0,0-28.14-16l-585-53.88C1555.62,852.19,1554.41,852.14,1553.19,852.14Z" transform="translate(-1445.98 -822.01)"/><path class="cls-3" d="M2244.83,1091.48H1546a40.62,40.62,0,0,1-30.52-13.32c-13.28-14.59-15.82-38.21-.65-55.49l111.27-126.86a41.49,41.49,0,0,1,31.18-14.12h587.52a41.45,41.45,0,0,1,41.47,41.47V1050a41.48,41.48,0,0,1-41.47,41.47Z" transform="translate(-1445.98 -822.01)"/><path class="cls-4" d="M1730.48,989.24a13,13,0,0,1,2.63,8.19,12.48,12.48,0,0,1-5.87,11q-5.88,3.91-17,3.91h-30.45V958.24h28.91q10.82,0,16.34,3.87a12,12,0,0,1,5.53,10.28,12.54,12.54,0,0,1-1.89,6.8,13.62,13.62,0,0,1-5.61,4.87A16.13,16.13,0,0,1,1730.48,989.24ZM1697.71,971v8h8.5c4,0,6-1.33,6-4s-2-4-6-4Zm17,24.34q0-4.25-6-4.25h-11v8.5h11C1712.7,999.59,1714.71,998.18,1714.71,995.34Z" transform="translate(-1445.98 -822.01)"/><path class="cls-4" d="M1784.51,998.59v13.76h-45V958.24h44V972h-26v6.34h22.88v13.14h-22.88v7.11Z" transform="translate(-1445.98 -822.01)"/><path class="cls-4" d="M1798.61,1012.08a35.25,35.25,0,0,1-10.47-4.06l5.87-13.29a37.74,37.74,0,0,0,8.66,3.59,33.93,33.93,0,0,0,9.2,1.35,14.27,14.27,0,0,0,5.41-.73,2.37,2.37,0,0,0,1.62-2.21c0-1.13-.71-2-2.12-2.55a46.77,46.77,0,0,0-7-1.85,80.72,80.72,0,0,1-10.43-2.82,17.89,17.89,0,0,1-7.27-5q-3.09-3.43-3.09-9.31a16,16,0,0,1,2.86-9.28,18.93,18.93,0,0,1,8.54-6.57,35.64,35.64,0,0,1,13.8-2.39,50.1,50.1,0,0,1,10.94,1.2,34.11,34.11,0,0,1,9.46,3.51l-5.48,13.22a33.58,33.58,0,0,0-15.08-4q-7,0-7,3.4c0,1.08.7,1.89,2.09,2.43a42.09,42.09,0,0,0,6.88,1.74,72.08,72.08,0,0,1,10.43,2.67,18.12,18.12,0,0,1,7.38,4.91q3.13,3.4,3.13,9.27a15.86,15.86,0,0,1-2.86,9.24,19.21,19.21,0,0,1-8.54,6.57,35.06,35.06,0,0,1-13.8,2.43A57,57,0,0,1,1798.61,1012.08Z" transform="translate(-1445.98 -822.01)"/><path class="cls-4" d="M1853.3,972.39h-15.85V958.24h49.93v14.15h-15.84v40H1853.3Z" transform="translate(-1445.98 -822.01)"/><path class="cls-4" d="M1928,1010a27.73,27.73,0,0,1,0-49.31,35.72,35.72,0,0,1,31.38,0,27.73,27.73,0,0,1,0,49.31,35.72,35.72,0,0,1-31.38,0Zm21.84-12.79a12,12,0,0,0,4.36-4.71,16.59,16.59,0,0,0,0-14.3,11.93,11.93,0,0,0-4.36-4.72,12.2,12.2,0,0,0-12.29,0,11.88,11.88,0,0,0-4.37,4.72,16.5,16.5,0,0,0,0,14.3,11.92,11.92,0,0,0,4.37,4.71,12.2,12.2,0,0,0,12.29,0Z" transform="translate(-1445.98 -822.01)"/><path class="cls-4" d="M1999.07,972v9.28h22.57V995h-22.57v17.32h-18.24V958.24h44V972Z" transform="translate(-1445.98 -822.01)"/><path class="cls-4" d="M2048.84,972v9.28h22.57V995h-22.57v17.32H2030.6V958.24h44V972Z" transform="translate(-1445.98 -822.01)"/><path class="cls-4" d="M2125.36,998.59v13.76h-45V958.24h44V972h-26.05v6.34h22.88v13.14h-22.88v7.11Z" transform="translate(-1445.98 -822.01)"/><path class="cls-4" d="M2155.58,998.74h-4.95v13.61h-18.24V958.24h26.05a31.9,31.9,0,0,1,13.06,2.48,20,20,0,0,1,9,28,18.51,18.51,0,0,1-7.58,6.88l11.37,16.7h-19.48Zm7.27-24.77c-1.24-1.11-3.09-1.66-5.57-1.66h-6.65V985h6.65a8.11,8.11,0,0,0,5.57-1.67,6.83,6.83,0,0,0,0-9.35Z" transform="translate(-1445.98 -822.01)"/><path class="cls-2" d="M1712.89,895.26c-5,0-7.11,3.8-8.79,6.85-.74,1.34-2.12,3.84-3,3.84s-2.26-2.5-3-3.84c-1.68-3.05-3.78-6.85-8.79-6.85s-7.11,3.8-8.79,6.85c-.74,1.34-2.12,3.84-3,3.84s-2.26-2.5-3-3.84c-1.69-3.05-3.78-6.85-8.79-6.85s-7.11,3.8-8.8,6.85c-.74,1.34-2.11,3.84-3,3.84a3.21,3.21,0,0,0-.43.07c-.88-.36-2.09-2.54-2.77-3.77-1.68-3-3.78-6.85-8.79-6.85s-7.11,3.8-8.79,6.85c-.74,1.34-2.12,3.84-3,3.84s-2.26-2.5-3-3.84c-1.69-3-3.78-6.85-8.79-6.85s-7.11,3.8-8.79,6.85c-.74,1.34-2.12,3.84-3,3.84s-2.26-2.5-3-3.84c-1.68-3-3.77-6.85-8.79-6.85-1.74,0-3.16,1.13-3.16,2.52s1.42,2.52,3.16,2.52c.89,0,2.26,2.5,3,3.84,1.69,3.05,3.78,6.85,8.79,6.85s7.11-3.8,8.8-6.85c.74-1.34,2.11-3.84,3-3.84s2.26,2.5,3,3.84c1.68,3.05,3.77,6.85,8.79,6.85s7.1-3.8,8.79-6.85c.74-1.34,2.12-3.84,3-3.84s2.26,2.5,3,3.84c1.68,3.05,3.78,6.85,8.79,6.85a3.62,3.62,0,0,0,1.33-.26c4.19-.53,6.12-3.93,7.66-6.73.74-1.35,2.12-3.84,3-3.84s2.26,2.49,3,3.84c1.68,3.05,3.78,6.84,8.79,6.84s7.1-3.79,8.79-6.84c.74-1.35,2.11-3.84,3-3.84s2.26,2.49,3,3.84c1.68,3.05,3.78,6.84,8.79,6.84s7.11-3.79,8.79-6.84c.74-1.35,2.12-3.84,3-3.84,1.75,0,3.16-1.13,3.16-2.52S1714.64,895.26,1712.89,895.26Z" transform="translate(-1445.98 -822.01)"/><path class="cls-2" d="M2272.18,869.82h0a1.57,1.57,0,0,1-.84-2.06l16-37.87a1.58,1.58,0,0,1,2.06-.84h0a1.58,1.58,0,0,1,.84,2.06l-16,37.88A1.56,1.56,0,0,1,2272.18,869.82Z" transform="translate(-1445.98 -822.01)"/><path class="cls-2" d="M2262.83,869.75h0a1.57,1.57,0,0,1-2-.86L2245.3,830.8a1.56,1.56,0,0,1,.86-2h0a1.57,1.57,0,0,1,2.05.86l15.48,38.08A1.57,1.57,0,0,1,2262.83,869.75Z" transform="translate(-1445.98 -822.01)"/><path class="cls-2" d="M2280.29,877.12h0a1.58,1.58,0,0,0,2.05.87l38.08-15.48a1.58,1.58,0,0,0,.87-2h0a1.58,1.58,0,0,0-2.05-.86l-38.08,15.48A1.57,1.57,0,0,0,2280.29,877.12Z" transform="translate(-1445.98 -822.01)"/><path class="cls-2" d="M2276.65,872.69h0a1.57,1.57,0,0,0,2.22.12l30.58-27.47a1.57,1.57,0,0,0,.12-2.22h0a1.58,1.58,0,0,0-2.22-.12l-30.58,27.48A1.57,1.57,0,0,0,2276.65,872.69Z" transform="translate(-1445.98 -822.01)"/><path class="cls-2" d="M2267.77,868.94h0a1.57,1.57,0,0,1-1.64-1.5l-1.65-41.08a1.58,1.58,0,0,1,1.51-1.63h0a1.58,1.58,0,0,1,1.63,1.51l1.65,41.07A1.56,1.56,0,0,1,2267.77,868.94Z" transform="translate(-1445.98 -822.01)"/><path class="cls-2" d="M1833.53,843.77c4.47,0,25.41,71.8,25.41,71.8l-57.2-22.94Z" transform="translate(-1445.98 -822.01)"/><path class="cls-2" d="M1949.89,822c2.68,3.58-41.5,63.87-41.5,63.87l-16.62-59.35Z" transform="translate(-1445.98 -822.01)"/></svg>