<svg id="OBJECTS" xmlns="http://www.w3.org/2000/svg" xmlns:xlink="http://www.w3.org/1999/xlink" viewBox="0 0 81.68 85.04"><defs><style>.cls-1,.cls-2,.cls-3{fill-rule:evenodd;}.cls-1{fill:url(#GradientFill_2);}.cls-2{fill:url(#GradientFill_2-2);}.cls-3{fill:url(#linear-gradient);}.cls-4{fill:#fff;}</style><linearGradient id="GradientFill_2" x1="51.58" y1="94.67" x2="39.15" y2="93.98" gradientTransform="translate(171.69 12.23) rotate(98.45)" gradientUnits="userSpaceOnUse"><stop offset="0" stop-color="#e3a030"/><stop offset="1" stop-color="#d7742d"/></linearGradient><linearGradient id="GradientFill_2-2" x1="99.63" y1="25.88" x2="93.69" y2="23.88" xlink:href="#GradientFill_2"/><linearGradient id="linear-gradient" x1="58.05" y1="54.84" x2="22.06" y2="43.19" gradientTransform="translate(171.13 11.46) rotate(97.87)" gradientUnits="userSpaceOnUse"><stop offset="0" stop-color="#76b82a"/><stop offset="1" stop-color="#007f4b"/></linearGradient></defs><title>best_value</title><path class="cls-1" d="M63.61,31.51c-1.18,0-5.55,1.66-2,5.86,4.5,5.29,4.46,5.14,13.29,14.46,0,0,1.86,1.89,3.71.32l5.56-4.72L74.4,34.55l4.07-2.9S73.44,31.51,63.61,31.51Z" transform="translate(-60.26 -31.49)"/><path class="cls-2" d="M141.61,114.61c-.21,1.16-2.38,3.65-6.55,0a118.22,118.22,0,0,1-13-13.13,3.92,3.92,0,0,1,1-5l5.55-4.72,13.26,11.74.06,5.11A52.4,52.4,0,0,1,141.61,114.61Z" transform="translate(-60.26 -31.49)"/><path class="cls-3" d="M71.91,31.51s-8.08-.62-2.73,5.54l65.12,69.23c7.63,9.71,7.69-1.55,7.63-2.06V34.74c0-1.88,0-3.11-2.58-3.23" transform="translate(-60.26 -31.49)"/><path class="cls-4" d="M106.33,43.46,112.18,38l3.09,3.32a2.09,2.09,0,0,1,.1,3.1,1.78,1.78,0,0,1-2.27.25,1.93,1.93,0,0,1-.39,2.45,2.13,2.13,0,0,1-3.19-.24Zm5.17,1.91a.69.69,0,0,0,0-1L110,42.82l-1,.92,1.41,1.52A.69.69,0,0,0,111.5,45.37Zm2.16-2.22a.64.64,0,0,0,0-.95l-1.36-1.46-.91.85,1.36,1.46A.62.62,0,0,0,113.66,43.15Z" transform="translate(-60.26 -31.49)"/><path class="cls-4" d="M113.26,50.89l5.85-5.45,4,4.29L121.79,51l-2.59-2.78-.91.85,2.53,2.72L119.51,53,117,50.25l-1,.92L118.57,54l-1.31,1.22Z" transform="translate(-60.26 -31.49)"/><path class="cls-4" d="M119.87,56.34l1.92-.3a3.69,3.69,0,0,0,1,2.6c.48.51,1,.66,1.24.39.77-.72-3-3.43-.7-5.53,1-.92,2.63-.91,4,.59a4.94,4.94,0,0,1,1.4,3.14l-1.9.23a3.74,3.74,0,0,0-1-2.29c-.41-.43-.74-.49-1-.25-.72.67,2.91,3.47.74,5.5-1.18,1.09-2.77.95-4.24-.62A5,5,0,0,1,119.87,56.34Z" transform="translate(-60.26 -31.49)"/><path class="cls-4" d="M126.85,65.47l4.53-4.23-1.53-1.64,1.32-1.22,4.46,4.78-1.32,1.22-1.52-1.63L128.25,67Z" transform="translate(-60.26 -31.49)"/><path class="cls-4" d="M95.26,52.71l3.8-7.66,1.6,1.71-2.87,5.38,5.56-2.49,1.59,1.71L97,54.61Z" transform="translate(-60.26 -31.49)"/><path class="cls-4" d="M104.21,62.3l.57-1.07-2.15-2.31-1.11.5-1.6-1.72,7.91-3.25,1.77,1.91L105.8,64Zm3-5.5-2.9,1.31,1.38,1.48Z" transform="translate(-60.26 -31.49)"/><path class="cls-4" d="M107.55,65.89l5.85-5.46,1.4,1.51-4.53,4.23,2.19,2.35-1.31,1.23Z" transform="translate(-60.26 -31.49)"/><path class="cls-4" d="M115.42,69.58l3.48-3.24,1.44,1.53-3.43,3.2a1.69,1.69,0,0,0,2.29,2.47l3.43-3.2,1.43,1.53-3.48,3.23c-1.45,1.36-3.3,1.44-5-.44S114,70.93,115.42,69.58Z" transform="translate(-60.26 -31.49)"/><path class="cls-4" d="M120.56,79.84l5.85-5.45,4,4.29-1.32,1.22-2.59-2.78-.91.85,2.53,2.72-1.31,1.23-2.54-2.72-1,.92,2.59,2.79-1.31,1.22Z" transform="translate(-60.26 -31.49)"/></svg>