<svg id="Layer_1" data-name="Layer 1" xmlns="http://www.w3.org/2000/svg" viewBox="0 0 875.39 303.5"><defs><style>.cls-1,.cls-4{fill:#fff;}.cls-1{stroke:#fff;stroke-miterlimit:10;}.cls-2{fill:#ffc13d;}.cls-3{fill:#fc6d19;}</style></defs><title>free</title><path class="cls-1" d="M617.14,78.18a3,3,0,1,0-3,3A3,3,0,0,0,617.14,78.18Z" transform="translate(-0.02 0.01)"/><path class="cls-1" d="M635.64,78.18a3,3,0,1,0-3,3A3,3,0,0,0,635.64,78.18Z" transform="translate(-0.02 0.01)"/><path class="cls-1" d="M654.14,78.18a3,3,0,1,0-3,3A3,3,0,0,0,654.14,78.18Z" transform="translate(-0.02 0.01)"/><path class="cls-1" d="M672.63,78.18a3,3,0,1,0-3,3A3,3,0,0,0,672.63,78.18Z" transform="translate(-0.02 0.01)"/><path class="cls-1" d="M691.13,78.18a3,3,0,1,0-3,3A3,3,0,0,0,691.13,78.18Z" transform="translate(-0.02 0.01)"/><path class="cls-1" d="M709.63,78.18a3,3,0,1,0-3,3A3,3,0,0,0,709.63,78.18Z" transform="translate(-0.02 0.01)"/><path class="cls-1" d="M728.13,78.18a3,3,0,1,0-3,3A3,3,0,0,0,728.13,78.18Z" transform="translate(-0.02 0.01)"/><path class="cls-1" d="M617.14,59.68a3,3,0,1,0-3,3h0A3,3,0,0,0,617.14,59.68Z" transform="translate(-0.02 0.01)"/><path class="cls-1" d="M635.64,59.68a3,3,0,1,0-3,3h0A3,3,0,0,0,635.64,59.68Z" transform="translate(-0.02 0.01)"/><path class="cls-1" d="M654.14,59.68a3,3,0,1,0-3,3h0A3,3,0,0,0,654.14,59.68Z" transform="translate(-0.02 0.01)"/><path class="cls-1" d="M672.63,59.68a3,3,0,1,0-3,3h0A3,3,0,0,0,672.63,59.68Z" transform="translate(-0.02 0.01)"/><path class="cls-1" d="M691.13,59.68a3,3,0,1,0-3,3h0A3,3,0,0,0,691.13,59.68Z" transform="translate(-0.02 0.01)"/><path class="cls-1" d="M709.63,59.68a3,3,0,1,0-3,3h0A3,3,0,0,0,709.63,59.68Z" transform="translate(-0.02 0.01)"/><path class="cls-1" d="M728.13,59.68a3,3,0,1,0-3,3h0A3,3,0,0,0,728.13,59.68Z" transform="translate(-0.02 0.01)"/><circle class="cls-1" cx="614.11" cy="41.18" r="3.01"/><circle class="cls-1" cx="632.61" cy="41.18" r="3.01"/><path class="cls-1" d="M654.14,41.18a3,3,0,1,0-3,3A3,3,0,0,0,654.14,41.18Z" transform="translate(-0.02 0.01)"/><path class="cls-1" d="M672.63,41.18a3,3,0,1,0-3,3A3,3,0,0,0,672.63,41.18Z" transform="translate(-0.02 0.01)"/><circle class="cls-1" cx="688.11" cy="41.18" r="3.01"/><path class="cls-1" d="M709.63,41.18a3,3,0,1,0-3,3A3,3,0,0,0,709.63,41.18Z" transform="translate(-0.02 0.01)"/><path class="cls-1" d="M728.13,41.18a3,3,0,1,0-3,3A3,3,0,0,0,728.13,41.18Z" transform="translate(-0.02 0.01)"/><path class="cls-2" d="M6,273.8a3,3,0,1,0-3,3A3,3,0,0,0,6,273.8Z" transform="translate(-0.02 0.01)"/><circle class="cls-2" cx="21.49" cy="273.81" r="3.01"/><circle class="cls-2" cx="39.99" cy="273.81" r="3.01"/><path class="cls-2" d="M61.51,273.8a3,3,0,1,0-3,3A3,3,0,0,0,61.51,273.8Z" transform="translate(-0.02 0.01)"/><path class="cls-2" d="M80,273.8a3,3,0,1,0-3,3A3,3,0,0,0,80,273.8Z" transform="translate(-0.02 0.01)"/><circle class="cls-2" cx="95.48" cy="273.81" r="3.01"/><path class="cls-2" d="M117,273.8a3,3,0,1,0-3,3A3,3,0,0,0,117,273.8Z" transform="translate(-0.02 0.01)"/><path class="cls-2" d="M6,255.3a3,3,0,1,0-3,3A3,3,0,0,0,6,255.3Z" transform="translate(-0.02 0.01)"/><path class="cls-2" d="M24.51,255.3a3,3,0,1,0-3,3A3,3,0,0,0,24.51,255.3Z" transform="translate(-0.02 0.01)"/><path class="cls-2" d="M43,255.3a3,3,0,1,0-3,3A3,3,0,0,0,43,255.3Z" transform="translate(-0.02 0.01)"/><path class="cls-2" d="M61.51,255.3a3,3,0,1,0-3,3A3,3,0,0,0,61.51,255.3Z" transform="translate(-0.02 0.01)"/><path class="cls-2" d="M80,255.3a3,3,0,1,0-3,3A3,3,0,0,0,80,255.3Z" transform="translate(-0.02 0.01)"/><path class="cls-2" d="M98.51,255.3a3,3,0,1,0-3,3A3,3,0,0,0,98.51,255.3Z" transform="translate(-0.02 0.01)"/><path class="cls-2" d="M117,255.3a3,3,0,1,0-3,3A3,3,0,0,0,117,255.3Z" transform="translate(-0.02 0.01)"/><path class="cls-2" d="M6,236.8a3,3,0,1,0-3,3A3,3,0,0,0,6,236.8Z" transform="translate(-0.02 0.01)"/><path class="cls-2" d="M24.51,236.8a3,3,0,1,0-3,3A3,3,0,0,0,24.51,236.8Z" transform="translate(-0.02 0.01)"/><path class="cls-2" d="M43,236.8a3,3,0,1,0-3,3A3,3,0,0,0,43,236.8Z" transform="translate(-0.02 0.01)"/><path class="cls-2" d="M61.51,236.8a3,3,0,1,0-3,3A3,3,0,0,0,61.51,236.8Z" transform="translate(-0.02 0.01)"/><path class="cls-2" d="M80,236.8a3,3,0,1,0-3,3A3,3,0,0,0,80,236.8Z" transform="translate(-0.02 0.01)"/><path class="cls-2" d="M98.51,236.8a3,3,0,1,0-3,3A3,3,0,0,0,98.51,236.8Z" transform="translate(-0.02 0.01)"/><path class="cls-2" d="M117,236.8a3,3,0,1,0-3,3A3,3,0,0,0,117,236.8Z" transform="translate(-0.02 0.01)"/><path class="cls-2" d="M791.69,303.49c-1.4,0-2.8-.06-4.22-.19L91.62,239.2a43.7,43.7,0,0,1-39.51-47.52L63.74,65.35a43.72,43.72,0,0,1,47.53-39.51L696.32,79.73a43.73,43.73,0,0,1,31.35,17.83l99.17,136.53a43.41,43.41,0,0,1,.9,50.1A42.93,42.93,0,0,1,791.69,303.49ZM107.21,30.13a39.24,39.24,0,0,0-39,35.63L56.58,192.09a39.24,39.24,0,0,0,35.47,42.66L787.9,298.84a39.22,39.22,0,0,0,35.34-62.12L724,100.19a39.26,39.26,0,0,0-28.14-16l-585-53.88A35,35,0,0,0,107.21,30.13Z" transform="translate(-0.02 0.01)"/><path class="cls-3" d="M798.85,269.47H100A40.59,40.59,0,0,1,69.5,256.15c-13.28-14.59-15.82-38.21-.65-55.49L180.12,73.8A41.51,41.51,0,0,1,211.3,59.68H798.82a41.45,41.45,0,0,1,41.47,41.43V228a41.49,41.49,0,0,1-41.47,41.47Z" transform="translate(-0.02 0.01)"/><path class="cls-2" d="M266.91,73.25c-5,0-7.11,3.8-8.79,6.85-.74,1.34-2.12,3.84-3,3.84s-2.26-2.5-3-3.84c-1.68-3-3.78-6.85-8.79-6.85s-7.11,3.8-8.79,6.85c-.74,1.34-2.12,3.84-3,3.84s-2.26-2.5-3-3.84c-1.69-3-3.78-6.85-8.79-6.85s-7.11,3.8-8.8,6.85c-.74,1.34-2.11,3.84-3,3.84a3.21,3.21,0,0,0-.43.07c-.88-.36-2.09-2.54-2.77-3.77-1.68-3-3.78-6.85-8.79-6.85s-7.11,3.8-8.79,6.85c-.74,1.34-2.12,3.84-3,3.84s-2.26-2.5-3-3.84c-1.69-3-3.78-6.85-8.79-6.85s-7.11,3.8-8.79,6.85c-.74,1.34-2.12,3.84-3,3.84s-2.26-2.5-3-3.84c-1.68-3-3.77-6.85-8.79-6.85-1.74,0-3.16,1.13-3.16,2.52s1.42,2.52,3.16,2.52c.89,0,2.26,2.5,3,3.84,1.69,3,3.78,6.85,8.79,6.85s7.11-3.8,8.8-6.85c.74-1.34,2.11-3.84,3-3.84s2.26,2.5,3,3.84c1.68,3,3.77,6.85,8.79,6.85s7.1-3.8,8.79-6.85c.74-1.34,2.12-3.84,3-3.84s2.26,2.5,3,3.84c1.68,3,3.78,6.85,8.79,6.85a3.54,3.54,0,0,0,1.33-.26c4.19-.53,6.12-3.93,7.66-6.73.74-1.35,2.12-3.84,3-3.84s2.26,2.49,3,3.84c1.68,3.05,3.78,6.84,8.79,6.84s7.1-3.79,8.79-6.84c.74-1.35,2.11-3.84,3-3.84s2.26,2.49,3,3.84C248,85.18,250.11,89,255.12,89s7.11-3.79,8.79-6.84c.74-1.35,2.12-3.84,3-3.84,1.75,0,3.16-1.13,3.16-2.52S268.66,73.25,266.91,73.25Z" transform="translate(-0.02 0.01)"/><path class="cls-2" d="M826.2,47.81h0a1.56,1.56,0,0,1-.84-2.05h0l16-37.87A1.58,1.58,0,0,1,843.42,7h0a1.58,1.58,0,0,1,.84,2.06L828.26,47a1.57,1.57,0,0,1-2,.84Z" transform="translate(-0.02 0.01)"/><path class="cls-2" d="M816.85,47.74h0a1.57,1.57,0,0,1-2-.86L799.32,8.79a1.56,1.56,0,0,1,.86-2h0a1.57,1.57,0,0,1,2.05.86h0l15.48,38.08A1.58,1.58,0,0,1,816.85,47.74Z" transform="translate(-0.02 0.01)"/><path class="cls-2" d="M834.31,55.11h0a1.59,1.59,0,0,0,2.05.87L874.44,40.5a1.58,1.58,0,0,0,.87-2h0a1.58,1.58,0,0,0-2-.86L835.18,53.12A1.56,1.56,0,0,0,834.31,55.11Z" transform="translate(-0.02 0.01)"/><path class="cls-2" d="M830.67,50.68h0a1.57,1.57,0,0,0,2.22.12h0l30.58-27.47a1.57,1.57,0,0,0,.12-2.22h0a1.58,1.58,0,0,0-2.22-.12L830.79,48.47A1.57,1.57,0,0,0,830.67,50.68Z" transform="translate(-0.02 0.01)"/><path class="cls-2" d="M821.79,46.93h0a1.57,1.57,0,0,1-1.64-1.5h0L818.5,4.35A1.58,1.58,0,0,1,820,2.72h0a1.58,1.58,0,0,1,1.63,1.51l1.65,41.07a1.56,1.56,0,0,1-1.49,1.63Z" transform="translate(-0.02 0.01)"/><path class="cls-2" d="M387.55,21.76c4.47,0,25.41,71.8,25.41,71.8l-57.2-22.94Z" transform="translate(-0.02 0.01)"/><path class="cls-2" d="M503.91,0c2.68,3.58-41.5,63.87-41.5,63.87L445.79,4.51Z" transform="translate(-0.02 0.01)"/><path class="cls-4" d="M376.74,192V139.27H415.4v11.86H390.34v8.22h24.51v11.86H390.34V192Z" transform="translate(-0.02 0.01)"/><path class="cls-4" d="M452.16,192l-8.85-17.71h-7V192h-13.6V139.27h26.41c11.7,0,18.34,7.75,18.34,17.55,0,9.17-5.54,14.07-10.52,15.81L467.74,192Zm1.5-35.26c0-3.64-2.92-5.61-6.56-5.61H436.35v11.3H447.1C450.74,162.43,453.66,160.46,453.66,156.74Z" transform="translate(-0.02 0.01)"/><path class="cls-4" d="M475,192V139.27h38.66v11.86H488.61v8.22h24.5v11.86h-24.5v8.93h25.06V192Z" transform="translate(-0.02 0.01)"/><path class="cls-4" d="M521.57,192V139.27h38.66v11.86H535.17v8.22h24.51v11.86H535.17v8.93h25.06V192Z" transform="translate(-0.02 0.01)"/></svg>