<svg id="_лой_1" data-name="‘лой_1" xmlns="http://www.w3.org/2000/svg" viewBox="0 0 2508.69 1714.06"><defs><style>.cls-1{fill:#ebf3fa;}.cls-2,.cls-9{fill:#739af0;}.cls-2,.cls-22{opacity:0.5;}.cls-3{fill:#dfebfd;}.cls-4{fill:#cddff9;}.cls-5{fill:#233862;}.cls-6{fill:#ffb27d;}.cls-7{fill:#ed985f;}.cls-8{fill:#2c3a64;}.cls-10,.cls-21{fill:#d02f68;}.cls-11{fill:#5c7de5;}.cls-12{fill:#2b478b;}.cls-13{fill:#fff;}.cls-14{fill:#163560;}.cls-15{fill:#1a3054;}.cls-16{fill:#e06396;}.cls-17{fill:#e8945b;}.cls-18{fill:#18288d;}.cls-19{fill:#dfefff;}.cls-19,.cls-23{opacity:0.9;}.cls-20{fill:#94b5ff;}.cls-21{opacity:0.3;}.cls-24{fill:#ebf2ff;}.cls-25{fill:#a8d29f;}</style></defs><title>iso</title><path class="cls-1" d="M2654.9,1833.57c-147.77,0-2300.44.56-2301.69-3.53l-.21-.52a2.84,2.84,0,0,1-.21-.76c-.82-2-331.68-577.08,182.68-977.39,201.25-156.63-12.6-260,147.44-434.4,183.92-200.38,384.64,21.29,589.15-69.57,36.14-16,72.4-41.86,108.7-81.48a410.71,410.71,0,0,1,66.79-58.58q5.52-3.87,11.14-7.57a440.12,440.12,0,0,1,44.57-25.55q15.45-7.69,31.47-14.23h0a495.87,495.87,0,0,1,52.17-18,562.77,562.77,0,0,1,77.8-16.12q17.36-2.39,35-3.77c228.51-18.14,485.68,83.93,618.4,233.12,26.72,30,148.22,185.49,52.44,399.15-60.47,134.89,192.86,263.73,282.88,417.77C2882.28,1563.84,2657,1828.47,2654.9,1833.57Z" transform="translate(-247.3 -120.07)"/><path class="cls-2" d="M1531.4,389.32l27.43,2.72a6.13,6.13,0,0,1,5.05,3.9q1.55,4.11,3.47,8.15a101.73,101.73,0,0,0,8.07,14.11,6,6,0,0,1,.06,6.8l-15.9,24a5.92,5.92,0,0,0,1.28,8l20.64,16.38a5.85,5.85,0,0,0,7.77-.46L1607.91,454a5.9,5.9,0,0,1,7-1.11,106.32,106.32,0,0,0,32,10.26,6.06,6.06,0,0,1,5.06,5.39l1.51,16.07a6.12,6.12,0,0,0,5.94,5.5l26.15.31a5.67,5.67,0,0,0,1.55-.17,5.89,5.89,0,0,0,4.47-5.19l2-20.49.5-5a104.44,104.44,0,0,0,13.87-5.42A105.67,105.67,0,0,0,1725,444a5.88,5.88,0,0,1,6.75-.17l19.34,12.83a6.1,6.1,0,0,0,8.14-1.31l12.53-15.77,3.58-4.53a6.17,6.17,0,0,0-.48-8.23l-15.77-15.59a5.89,5.89,0,0,1-1.23-6.81,105.3,105.3,0,0,0,7.48-21.33,17.84,17.84,0,0,0,.46-1.85,3.15,3.15,0,0,1,.17-.62,6,6,0,0,1,5.23-4.14l26.08-2.5a4.79,4.79,0,0,0,.87-.14,6.11,6.11,0,0,0,4.61-5.79l.34-26.07a6.09,6.09,0,0,0-5.47-6.13L1769.05,333a5.88,5.88,0,0,1-5.12-4.26,107.09,107.09,0,0,0-5.88-15.25c-1.26-2.67-2.62-5.25-4.08-7.76a6.2,6.2,0,0,1,.2-6.52l15.27-23.1a5.92,5.92,0,0,0-1.25-7.9l-20.44-16.17a6.17,6.17,0,0,0-8.25.49l-14.76,14.93a6.06,6.06,0,0,1-7.43,1A106.23,106.23,0,0,0,1687,256.05a6,6,0,0,1-4.67-5.34l-2.24-23.51a6.24,6.24,0,0,0-6.1-5.63l-26-.35a6,6,0,0,0-6,5.39l-.13,1.2-2.38,23.81a6.09,6.09,0,0,1-4.51,5.3h0a105.6,105.6,0,0,0-17.56,6.51c-3.07,1.46-6,3.05-8.9,4.76a6,6,0,0,1-6.41-.12l-19.64-13a6.2,6.2,0,0,0-8.28,1.3L1558,276.7a6.61,6.61,0,0,0-1,1.88,6.16,6.16,0,0,0,1.49,6.22l12.62,12.42a6.16,6.16,0,0,1,1.61,5.83,6.86,6.86,0,0,1-.65,1.57,105.88,105.88,0,0,0-14,39.47,6,6,0,0,1-4.33,4.92,7.86,7.86,0,0,1-1,.18l-21.13,2a6.06,6.06,0,0,0-5.47,5.93l0,.61-.35,25.41A6.17,6.17,0,0,0,1531.4,389.32ZM1719.08,350a70.74,70.74,0,0,1,1,13.15c-.17,8.77-4.72,21.69-10.18,28.58-.58.74-1.17,1.45-1.76,2.17-36.64,43-103.28,18.64-102.83-38.69.07-7.49,3.23-17.75,7.51-25.21a37.13,37.13,0,0,1,3.14-4.62,65.17,65.17,0,0,1,16.55-14.85C1666.53,289.45,1711.77,308.43,1719.08,350Z" transform="translate(-247.3 -120.07)"/><path class="cls-3" d="M1844.89,322l17.48,4.28a4,4,0,0,1,2.91,3c.42,1.87.91,3.73,1.49,5.59a66.83,66.83,0,0,0,3.92,9.86,4,4,0,0,1-.58,4.4l-12.48,14.08a3.87,3.87,0,0,0,.09,5.26l11.84,12.48a3.8,3.8,0,0,0,5.06.41l13.79-10.49a3.82,3.82,0,0,1,4.6-.07,69.88,69.88,0,0,0,19.73,9.56,4,4,0,0,1,2.78,3.95L1915,394.8a4,4,0,0,0,3.34,4.1l16.88,2.6a3.49,3.49,0,0,0,1,0,3.85,3.85,0,0,0,3.36-2.94l3.21-13.06.78-3.18a69.7,69.7,0,0,0,9.46-2.23,70.49,70.49,0,0,0,12-5,3.83,3.83,0,0,1,4.37.5l11.33,10.07a4,4,0,0,0,5.38-.09l9.55-9.05,2.72-2.6a4,4,0,0,0,.45-5.36l-8.76-11.53a3.83,3.83,0,0,1-.17-4.51,68.81,68.81,0,0,0,6.8-13.11,11,11,0,0,0,.46-1.15,2.19,2.19,0,0,1,.17-.38,3.93,3.93,0,0,1,3.76-2.2l17.09.78a3.6,3.6,0,0,0,.57,0,4,4,0,0,0,3.52-3.32l2.61-16.82a4,4,0,0,0-3-4.47l-18.23-4.45a3.83,3.83,0,0,1-2.92-3.23,71.25,71.25,0,0,0-2.4-10.4c-.58-1.84-1.22-3.63-1.93-5.39a4,4,0,0,1,.73-4.19l12-13.54a3.86,3.86,0,0,0-.08-5.22l-11.73-12.33a4,4,0,0,0-5.38-.44l-10.91,8.3a4,4,0,0,1-4.89-.06,69.84,69.84,0,0,0-18.45-10.81,3.93,3.93,0,0,1-2.53-3.88l.71-15.41a4.07,4.07,0,0,0-3.43-4.19L1935.71,224a3.89,3.89,0,0,0-4.39,2.94l-.2.76-3.72,15.17a4,4,0,0,1-3.4,3h0a69,69,0,0,0-12,2.59c-2.12.66-4.16,1.42-6.19,2.26a3.9,3.9,0,0,1-4.13-.66l-11.5-10.22a4,4,0,0,0-5.47.08l-12.29,11.66a4.65,4.65,0,0,0-.82,1.13,4,4,0,0,0,.39,4.15l7,9.19a4,4,0,0,1,.5,3.92,4.45,4.45,0,0,1-.56,1,69.08,69.08,0,0,0-12.65,24.23,3.91,3.91,0,0,1-3.25,2.78,5,5,0,0,1-.67,0l-13.84-.64a4,4,0,0,0-4.09,3.33l-.06.39-2.56,16.39A4,4,0,0,0,1844.89,322Zm124.94-8.19a46.32,46.32,0,0,1-.57,8.59c-.92,5.65-5,13.59-9.2,17.54l-1.35,1.24c-27.63,24.46-68.47,2.56-62.91-34.45.73-4.84,3.71-11.18,7.17-15.61a23.46,23.46,0,0,1,2.45-2.7,42.63,42.63,0,0,1,12.07-8.08C1941.42,269.83,1968.92,286.25,1969.83,313.79Z" transform="translate(-247.3 -120.07)"/><path class="cls-4" d="M1710.17,688.18l43.25,5a9.65,9.65,0,0,1,7.87,6.28q2.34,6.54,5.26,12.95a161.44,161.44,0,0,0,12.37,22.51,9.53,9.53,0,0,1-.08,10.73l-25.73,37.53a9.35,9.35,0,0,0,1.81,12.59l32.15,26.4a9.23,9.23,0,0,0,12.28-.53l29.93-29.31a9.27,9.27,0,0,1,11-1.57,168.4,168.4,0,0,0,50.22,17,9.58,9.58,0,0,1,7.85,8.65l1.95,25.41a9.69,9.69,0,0,0,9.24,8.85l41.28,1.16a8.4,8.4,0,0,0,2.46-.23,9.28,9.28,0,0,0,7.18-8.07l3.79-32.3.91-7.87a168.29,168.29,0,0,0,49.3-23.78,9.3,9.3,0,0,1,10.66-.09l30.2,20.76a9.62,9.62,0,0,0,12.89-1.84l20.19-24.57,5.77-7.06a9.75,9.75,0,0,0-.54-13l-24.48-25a9.29,9.29,0,0,1-1.77-10.79,166.79,166.79,0,0,0,12.38-33.49c.33-1,.53-1.91.76-2.9a6.06,6.06,0,0,1,.29-1,9.5,9.5,0,0,1,8.36-6.41l41.26-3.26a6.75,6.75,0,0,0,1.37-.2,9.66,9.66,0,0,0,7.43-9l1.22-41.15a9.61,9.61,0,0,0-8.48-9.82l-45.11-5.22a9.27,9.27,0,0,1-8-6.86,170.27,170.27,0,0,0-8.88-24.24q-2.89-6.36-6.25-12.35a9.79,9.79,0,0,1,.49-10.29L2089,515.74a9.34,9.34,0,0,0-1.77-12.5l-31.84-26.07a9.74,9.74,0,0,0-13,.56l-23.69,23.18a9.57,9.57,0,0,1-11.76,1.33,168,168,0,0,0-47.53-20.4,9.53,9.53,0,0,1-7.23-8.55l-2.92-37.19a9.85,9.85,0,0,0-9.49-9l-41-1.24a9.41,9.41,0,0,0-9.66,8.36l-.24,1.88-4.39,37.53a9.65,9.65,0,0,1-7.26,8.26l0,0a166.29,166.29,0,0,0-27.89,9.81c-4.89,2.22-9.57,4.66-14.17,7.28a9.45,9.45,0,0,1-10.13-.36l-30.66-21.07a9.77,9.77,0,0,0-13.1,1.83l-26,31.7a10.42,10.42,0,0,0-1.64,2.93,9.71,9.71,0,0,0,2.18,9.86l19.61,19.94a9.7,9.7,0,0,1,2.38,9.25,9.94,9.94,0,0,1-1.07,2.47,167.26,167.26,0,0,0-23.08,62,9.4,9.4,0,0,1-7,7.65,9.21,9.21,0,0,1-1.6.26L1711.61,628a9.57,9.57,0,0,0-8.8,9.22l0,1-1.22,40.11A9.73,9.73,0,0,0,1710.17,688.18ZM2007.55,631a111.67,111.67,0,0,1,1.21,20.79c-.49,13.85-8,34.13-16.82,44.86-.93,1.15-1.89,2.26-2.84,3.38-59,67-163.56,26.71-161.34-63.79.31-11.83,5.56-27.94,12.52-39.61a59.71,59.71,0,0,1,5.07-7.21,103.24,103.24,0,0,1,26.53-23C1926.16,534,1997.1,565.19,2007.55,631Z" transform="translate(-247.3 -120.07)"/><path class="cls-4" d="M1227.76,774.29s21-219.19-133-296.31c0,0-30.12-14.52-52.32,16.54s40.2,52.5,74.1,79.53S1220.47,690.63,1227.76,774.29Z" transform="translate(-247.3 -120.07)"/><path class="cls-4" d="M1241.15,690.78s53.54-156-45.14-239c0,0-19.4-15.84-41,2.91s20.11,45.26,40.09,70.86S1250.45,628.57,1241.15,690.78Z" transform="translate(-247.3 -120.07)"/><path class="cls-3" d="M2448,1669.05c72.95-90.14-66.14-222.93-66.14-222.93s-234,10.62-259.6-16.93,198.2-48.15,198.2-48.15c-36.71-62.76-216.53-160.36-216.53-160.36S1925.57,1364,1907.47,1331s164.43-118.8,164.43-118.8c-58-44.48-162.45-49.67-162.45-49.67-155.58,11.6-132.42,210.87-132.42,210.87s-62.9,48.32-165.31,61.83h0s-20.08.87-49.8,8.46l11.18,15.48q7.59-2.59,15-4.47a.15.15,0,0,1,.09,0l.22-.05c3.15-.67,7.65-1.6,13.16-2.69h.05c12.66-2,21.8-3.69,28.19-5.23l.06,0c39.25-6.8,91.81-13.71,109.58-5.82a37.19,37.19,0,0,1,4.69-8.44l-4.69,8.44c-37.56,67.45,48.69,206.74,117.13,269.61s66,15.69,71-48.42-64-141-68.56-175.11,34.67-7.76,66.43,44.16.4,112,50.26,197,242.91,37.62,242.91,37.62c-56.65-42.58-97.5-162.83-81.34-180.27s119.55,129.63,141.62,148.25S2375.08,1759.19,2448,1669.05Z" transform="translate(-247.3 -120.07)"/><path class="cls-3" d="M778.87,1641.71c-47.44-58.62,43-145,43-145s152.15,6.91,168.83-11-128.9-31.32-128.9-31.32c23.88-40.82,140.82-104.29,140.82-104.29s116,93.18,127.78,71.71-106.93-77.26-106.93-77.26c37.73-28.92,105.65-32.3,105.65-32.3,101.17,7.54,86.11,137.14,86.11,137.14s40.9,31.42,107.51,40.21h0s13.07.56,32.39,5.5l-7.27,10.07c-3.29-1.13-6.55-2.11-9.78-2.91a0,0,0,0,0,0,0l-.14,0c-2.06-.43-5-1-8.57-1.75h0c-8.23-1.27-14.17-2.4-18.33-3.4l0,0c-25.53-4.42-59.71-8.91-71.26-3.78a23.86,23.86,0,0,0-3.06-5.49l3.06,5.49c24.43,43.87-31.67,134.45-76.17,175.34s-42.92,10.2-46.19-31.49,41.63-91.67,44.59-113.88-22.55-5-43.2,28.72-.26,72.86-32.69,128.1-158,24.46-158,24.46c36.85-27.69,63.42-105.9,52.9-117.24s-77.74,84.31-92.1,96.41S826.31,1700.34,778.87,1641.71Z" transform="translate(-247.3 -120.07)"/><path class="cls-4" d="M729.79,626.3c29.12-69.56,148.05-30.86,148.05-30.86s66,137.23,89.73,143.43S934,610.53,934,610.53c47.26,1.67,158.59,74.55,158.59,74.55s-27,146.31-2.57,146.5,17.33-130.78,17.33-130.78c43.36,19.51,78.53,77.71,78.53,77.71,41.32,92.66-79.92,140.84-79.92,140.84s-8.28,50.91,15.56,113.72h0s5.7,11.77,10.52,31.13l-12.31-1.63c-.57-3.43-1.26-6.77-2.08-10a.07.07,0,0,0,0-.06l0-.14c-.59-2-1.45-4.87-2.52-8.37h0v0c-2.79-7.85-4.61-13.61-5.7-17.75v0c-8.22-24.57-20.46-56.8-30.46-64.54a23.89,23.89,0,0,0,3.39-5.29l-3.39,5.29c-27,42.31-133.39,35.86-190.49,16.06s-29.33-33,5.83-55.6,100.45-6.8,121.41-14.73-6.24-22.24-45.77-24.42-64.28,34.32-128.29,31.95S745.2,787.42,745.2,787.42c41.85,19.31,123.3,5.63,128.3-9S762.41,749.93,745,743,700.66,695.86,729.79,626.3Z" transform="translate(-247.3 -120.07)"/><path class="cls-5" d="M2090.83,1834.13s0-15.32,2.18-20.41,10.19-25.84,10.19-25.84h31.29s5.82,18.92,6.18,25.11,0,21.14,0,21.14Z" transform="translate(-247.3 -120.07)"/><path class="cls-5" d="M2289.49,1834.13s0-15.32-2.18-20.41-10.19-25.84-10.19-25.84h-31.29s-5.82,18.92-6.18,25.11,0,21.14,0,21.14Z" transform="translate(-247.3 -120.07)"/><path class="cls-6" d="M2164.14,974.36s-1.1,34.11-5.47,49.39l-34.55,24.11,130.07,19.46-31-42.86s-9.37-45.73-4.46-62.65S2164.14,974.36,2164.14,974.36Z" transform="translate(-247.3 -120.07)"/><path class="cls-7" d="M2164,979.07s10.29,24.76,29.66,24.22,23.78-22.46,23.78-22.46Z" transform="translate(-247.3 -120.07)"/><path class="cls-8" d="M2152.39,959s-6.26-31.23-10.62-40.69-8-51.66,40.38-53.84c0,0,18.56,2.18,28.74-4,0,0,0,6.19-2.54,8.37a32.17,32.17,0,0,1,29.83,10.55c13.1,14.56-8.73,65.49-7.64,77.5Z" transform="translate(-247.3 -120.07)"/><path class="cls-6" d="M2191.39,993.72c-14-.25-39.88-18.94-39.88-42.09V915.51c0-8.45,5.9-15.37,13.1-15.37h53.56c7.2,0,13.1,6.92,13.1,15.37v34.08C2231.27,973.86,2207.49,994,2191.39,993.72Z" transform="translate(-247.3 -120.07)"/><path class="cls-8" d="M2151.51,934.79s.08-21.7,17.27-25,55.67,10.58,61.12-5.24-74.37-15.56-78.39-5.46S2151.51,934.79,2151.51,934.79Z" transform="translate(-247.3 -120.07)"/><path class="cls-9" d="M2094.75,1303.64s5.48,167.17-2.71,262.55.06,228.12.06,228.12,26.18,14.44,54.56,0c0,0,31.12-184.26,30.92-228.12-.21-46.7,33.88-255.26,33.88-255.26Z" transform="translate(-247.3 -120.07)"/><path class="cls-9" d="M2288.36,1794.31s-26.17,14.44-54.55,0c0,0-31.12-184.27-30.92-228.12.09-19.73-5.94-68.33-12.94-117.88-9.57-67.79-20.94-137.38-20.94-137.38l121.23-7.57s-10,167.45-1.81,262.83S2288.36,1794.31,2288.36,1794.31Z" transform="translate(-247.3 -120.07)"/><path class="cls-10" d="M2288.79,1331.45s-51.68,10-98.84,10c-20.56,0-42.9-2.26-60.69-4.64-19.67-2.61-33.77-5.37-33.77-5.37s-10.48.92-4.29-50.74c4.7-39.32,3.23-74.81,2.18-111.33-.12-4.06,0-8.87.22-14.21,2-42.58,14.89-119.24,24.7-123.35,0,0,14.59-5.43,40.37-8.07,0,.5,15,22.38,32.73,24.83,11-4.36,19.7-8.08,31.77-24.12a345,345,0,0,1,49.8,9.61s1.86,8.12,8.87,149C2284.62,1238.88,2303.67,1331.64,2288.79,1331.45Z" transform="translate(-247.3 -120.07)"/><path class="cls-11" d="M2202.89,1566.19c.09-19.73-5.94-68.33-12.94-117.88,7.26-29.6,24.94-58.09,24.94-58.09C2237.27,1453,2202.89,1566.19,2202.89,1566.19Z" transform="translate(-247.3 -120.07)"/><path class="cls-10" d="M2044.54,1194c-2.34,7.33,4.14,17.22,10.47,31.11,13,28.52,34.68,70.64,34.68,70.64a124.32,124.32,0,0,1-6.57,19.23c-36.41-28.61-59.89-53-74.88-71.61-21.06-26.25-22.8-52.77-18.9-64.24,46.8-137.61,131.65-148.18,131.65-148.18L2114.25,1140S2049.38,1178.87,2044.54,1194Z" transform="translate(-247.3 -120.07)"/><path class="cls-6" d="M2085.37,1297.81s19.65-18.2,27.65-8,9.46,26.2,3.28,25.11-18.92-6.92-20.74-4-10,8.48-12.44,4.06S2085.37,1297.81,2085.37,1297.81Z" transform="translate(-247.3 -120.07)"/><path class="cls-6" d="M2089.69,1295.73a124.32,124.32,0,0,1-6.57,19.23c-36.41-28.61-59.89-53-74.88-71.61,11.3-.84,27.79-4.88,46.77-18.26C2068.05,1253.61,2089.69,1295.73,2089.69,1295.73Z" transform="translate(-247.3 -120.07)"/><path class="cls-10" d="M2399.87,1190.17c.34,8.57-1.37,26.93-22.43,53.18-15,18.66-38.47,43-74.88,71.61a125.65,125.65,0,0,1-6.57-19.23s21.65-42.12,34.68-70.64c6.33-13.89,10.86-20.36,9.4-25.57-4.66-16.6-43.79-39.75-60.23-52.21a72.32,72.32,0,0,1-8.41-7.31l1.54-105.93s21.55,5.31,34.84,18.6C2361.85,1106.73,2398.26,1150.15,2399.87,1190.17Z" transform="translate(-247.3 -120.07)"/><path class="cls-6" d="M2300.31,1297.81s-19.65-18.2-27.65-8-9.46,26.2-3.28,25.11,18.92-6.92,20.74-4,10,8.48,12.44,4.06S2300.31,1297.81,2300.31,1297.81Z" transform="translate(-247.3 -120.07)"/><path class="cls-6" d="M2296,1295.73a124.32,124.32,0,0,0,6.57,19.23c36.41-28.61,59.89-53,74.88-71.61-11.3-.84-27.79-4.88-46.77-18.26C2317.63,1253.61,2296,1295.73,2296,1295.73Z" transform="translate(-247.3 -120.07)"/><path class="cls-12" d="M2160.48,1015.43a13.83,13.83,0,0,0-7.41,9s23.17,23.83,38.33,24.19Z" transform="translate(-247.3 -120.07)"/><path class="cls-12" d="M2191.4,1048.58l29.9-34.35s6.17,4.06,6.08,10.75C2227.38,1025,2204.25,1049.49,2191.4,1048.58Z" transform="translate(-247.3 -120.07)"/><path class="cls-12" d="M2186,1046.05s-22.82,197-14.87,221a164.24,164.24,0,0,0,13.92,30.53,8.09,8.09,0,0,0,14,0c6.06-10.53,14-25.75,14-33.48,0-12.52-17.32-218.22-17.32-218.22Z" transform="translate(-247.3 -120.07)"/><path class="cls-12" d="M2180,1036.77s13.8-2,22.19-.78c1.67.25,2.6,2.9,1.78,5-2.35,6.17-7.15,16.87-12.17,16.87C2184.77,1057.9,2173.77,1037.48,2180,1036.77Z" transform="translate(-247.3 -120.07)"/><path class="cls-13" d="M2180.21,970.45a15.32,15.32,0,0,0,12,5.7,14.27,14.27,0,0,0,11.22-5.7S2190.56,968.34,2180.21,970.45Z" transform="translate(-247.3 -120.07)"/><path class="cls-14" d="M753.18,1094.6c-2.2-6.65,30.13,13.74,68.67.82,33.21-11.13,3.26-32.81,11.73-60.31,6-19.59,4.12-72.2-47.22-74.31,0,0-12.34-7.47-30.17-1.55C715.64,972.71,631.32,1104.2,753.18,1094.6Z" transform="translate(-247.3 -120.07)"/><path class="cls-9" d="M809.44,1215.16a134.06,134.06,0,0,0,13.72,20.76c10.66,13.35,66.63-18.35,61.81-20.76s-32.08-79.78-43.61-93.49a49.08,49.08,0,0,0-25.55-15.59Z" transform="translate(-247.3 -120.07)"/><path class="cls-15" d="M620.56,1761.63s-15.44,14.09-12.43,24.11,17,16.69,18.84,28.94,9.42,18.92,16.2,18.92H675.5s5-8.62-7.06-11.21-16.6-17-15.85-30.34-1.13-31.17-1.13-31.17L625.84,1755Z" transform="translate(-247.3 -120.07)"/><path class="cls-15" d="M751.31,1767.61s-5.56,59.72,1.23,63.06l86.79-.18s0-10-13.94-12.24-38.43-10.39-42.58-28.56S751.31,1767.61,751.31,1767.61Z" transform="translate(-247.3 -120.07)"/><path class="cls-9" d="M684.55,1174.88a343.81,343.81,0,0,0,0,40.11c.86,14.51,15.53,33.94,17.61,38.74,5.22,12,11.11,14,11.11,14l45.57,11.17,16,3.92,50.52-15.09s23-64.24,13.78-100.4-23.36-61.27-23.36-61.27-34.34-7.72-94.92-3.43Z" transform="translate(-247.3 -120.07)"/><path class="cls-11" d="M680.21,1215.5c.85,14.5,19.87,33.43,21.95,38.23,5.22,12,11.11,14,11.11,14l45.57,11.17L771,1261.77s-73.77-20.52-59.8-85.56Z" transform="translate(-247.3 -120.07)"/><path class="cls-10" d="M822.18,1277.5s25,77.88,26.63,104.4S801,1758.61,799,1770.83c-1.88,11.51-16.18,18.86-16.18,18.86s-6.58,3.88-16,1.22c-13-3.67-17.15-8.08-17.15-8.08s-19.47-249.75-7.42-339a1414.32,1414.32,0,0,0,12.2-166.36Z" transform="translate(-247.3 -120.07)"/><path class="cls-16" d="M716.16,1275.17S678,1326.39,674.44,1361s-5.59,156.22-13.17,190-35.43,98.7-35.43,204c0,0,2.89,6,11.83,9.25a98.82,98.82,0,0,0,10.41,2.87,16.36,16.36,0,0,0,18.3-8.68c18.83-37.92,78.82-160.2,81.89-185.59,2.18-18,21.12-136.85,62.43-206.61,9.92-16.75-6.09-83.35-6.09-83.35Z" transform="translate(-247.3 -120.07)"/><path class="cls-11" d="M826.18,1265.47s-10,8-30,8.35c-23.84.48-82.9-6.08-82.9-6.08a48.78,48.78,0,0,0-2.52,15.08s72.14,18.19,113.93,2.66C824.69,1285.48,830.08,1275.33,826.18,1265.47Z" transform="translate(-247.3 -120.07)"/><path class="cls-13" d="M791,1282.05c0-6.79,4.88-12.31,10.88-12.31s10.87,5.52,10.87,12.31-4.88,12.31-10.87,12.31S791,1288.84,791,1282.05Zm3.6,0c0,4.8,3.27,8.71,7.28,8.71s7.27-3.91,7.27-8.71-3.27-8.7-7.27-8.7S794.62,1277.25,794.62,1282.05Z" transform="translate(-247.3 -120.07)"/><polygon class="cls-14" points="502.48 1196.69 610.91 1197.7 664.26 1072.32 555.84 1071.31 502.48 1196.69"/><path class="cls-6" d="M764,1260.09l7.95-9.76s5.38-4.8,9.28-5.62,12.14-5.56,12.94-4.22-6.33,10.89-6.33,10.89l-.36,0c8.18,6.16,28.85.72,31.4,3.23,3.09,3-4.26,9.63-8.2,13.32s-15.21,9.86-24,7.12c-6.43-2-16.54-4-16.54-4Z" transform="translate(-247.3 -120.07)"/><path class="cls-6" d="M903.4,1214.44s-6.81-7.74-11.15-4,1.14,22,5.27,20.13S905.77,1216.71,903.4,1214.44Z" transform="translate(-247.3 -120.07)"/><path class="cls-9" d="M720.89,1102.65s-36.15,2.54-50,36.23S631.54,1228,637,1251.25c2.18,9.26,28.52,41.34,138.37,21,0,0-.9-11.49-8.32-16.88,0,0-77.39-24.85-77.26-29.79.25-9.35,10.46-17.43,53.69-60.67C755.25,1153.11,720.89,1102.65,720.89,1102.65Z" transform="translate(-247.3 -120.07)"/><path class="cls-6" d="M744.78,1104.29c-1.07-1.43.3-6,2-14.48,1.54-7.69,4.16-19.59,4.11-33l2.28.38,38.47,6.47s-.87,10.29-.9,20v.24c0,8.41,2.27,21.13-.57,22.79C775.61,1115.24,748.88,1109.8,744.78,1104.29Z" transform="translate(-247.3 -120.07)"/><path class="cls-17" d="M791.65,1063.69s-.76,14.5-.79,24.19c-21.53-.51-33-21.41-37.68-30.66Z" transform="translate(-247.3 -120.07)"/><path class="cls-6" d="M794,1081s-50.43-7.18-45.47-38.52,1.79-53.37,34.19-50.11,36.76,16.21,37.65,27.07S807.22,1082.05,794,1081Z" transform="translate(-247.3 -120.07)"/><path class="cls-14" d="M805.72,995.25s-19.62,34.56-41.62,36.63-30.27-5.06-30.27-5.06,18.26-10.29,25.21-32.24C759,994.58,798.12,976.1,805.72,995.25Z" transform="translate(-247.3 -120.07)"/><path class="cls-14" d="M801.84,997.69s9.6,5.44,12.62,13.56a51.25,51.25,0,0,1,2.21,29.84s14.36-23.33,5-39.32C811.64,984.82,801.84,997.69,801.84,997.69Z" transform="translate(-247.3 -120.07)"/><rect class="cls-18" x="790.47" y="477.52" width="918.54" height="1234.05"/><rect class="cls-19" x="824.33" y="506.68" width="850.82" height="1175.73"/><path class="cls-10" d="M1302.76,577.87a17.29,17.29,0,0,0-17.28,17.29V628.6c0,28,24.36,50.74,54.42,50.74h292.35c30.06,0,54.42-22.72,54.42-50.74V593.42a15.55,15.55,0,0,0-15.55-15.55Z" transform="translate(-247.3 -120.07)"/><path class="cls-20" d="M1315,1471.29H1143.13V1299.48H1315Zm-163.72-8.09h155.62V1307.58H1151.23Z" transform="translate(-247.3 -120.07)"/><path class="cls-10" d="M1233.31,1436.76a12.16,12.16,0,0,1-9.36-4.4l-53-64.14a12.14,12.14,0,0,1,18.71-15.47l42,50.87L1307.76,1276a12.14,12.14,0,0,1,20.86,12.43l-84.88,142.46a12.16,12.16,0,0,1-9.5,5.89Z" transform="translate(-247.3 -120.07)"/><rect class="cls-20" x="1136.84" y="1270.97" width="418.15" height="14.11"/><rect class="cls-20" x="1136.84" y="1333.98" width="418.15" height="14.11"/><rect class="cls-20" x="1438.52" y="1302.48" width="116.46" height="14.11"/><rect class="cls-20" x="1136.84" y="1302.48" width="258.78" height="14.11"/><rect class="cls-20" x="1136.84" y="1497.3" width="418.15" height="14.11"/><rect class="cls-20" x="1136.84" y="1560.31" width="418.15" height="14.11"/><rect class="cls-20" x="1438.52" y="1528.81" width="116.46" height="14.11"/><rect class="cls-20" x="1136.84" y="1528.81" width="258.78" height="14.11"/><rect class="cls-20" x="1288.14" y="817.54" width="323.3" height="14.11"/><rect class="cls-20" x="1288.14" y="880.55" width="323.3" height="14.11"/><rect class="cls-20" x="1526.99" y="849.04" width="90.04" height="14.11"/><rect class="cls-20" x="1288.14" y="849.04" width="200.08" height="14.11"/><rect class="cls-20" x="1288.14" y="640.11" width="323.3" height="14.11"/><rect class="cls-20" x="1288.14" y="703.12" width="323.3" height="14.11"/><rect class="cls-20" x="1526.99" y="671.62" width="90.04" height="14.11"/><rect class="cls-20" x="1288.14" y="671.62" width="200.08" height="14.11"/><rect class="cls-21" x="1288.14" y="966.03" width="328.89" height="152.77" rx="22.03"/><g class="cls-22"><rect class="cls-10" x="1314.61" y="1003.86" width="271.25" height="14.11"/><rect class="cls-10" x="1314.61" y="1066.87" width="271.25" height="14.11"/><rect class="cls-10" x="1515.01" y="1035.36" width="75.55" height="14.11"/><rect class="cls-10" x="1314.61" y="1035.36" width="167.87" height="14.11"/></g><path class="cls-20" d="M1315,1750.18H1143.13V1578.36H1315Zm-163.72-8.1h155.62V1586.46H1151.23Z" transform="translate(-247.3 -120.07)"/><path class="cls-10" d="M1233.31,1715.64a12.16,12.16,0,0,1-9.36-4.4l-53-64.14a12.14,12.14,0,0,1,18.71-15.47l42,50.87,76.07-127.67a12.14,12.14,0,0,1,20.86,12.43l-84.88,142.46a12.16,12.16,0,0,1-9.5,5.89Q1233.78,1715.64,1233.31,1715.64Z" transform="translate(-247.3 -120.07)"/><path class="cls-9" d="M1219.77,989.35s-197.62,72.67-293.6,266.26l65.26-11.19,27.63,46.45s76.4-174.16,233.55-226.37Z" transform="translate(-247.3 -120.07)"/><path class="cls-9" d="M1154.22,999.71s203.7,53.31,317.86,236.77l-66-4.86-23,48.9s-92.81-166-254.26-202.85Z" transform="translate(-247.3 -120.07)"/><circle class="cls-10" cx="1208.59" cy="944.4" r="252.91" transform="translate(-561.1 1011.15) rotate(-45)"/><g class="cls-23"><path class="cls-24" d="M1208.59,1171.32c-125.12,0-226.92-101.8-226.92-226.92s101.8-226.92,226.92-226.92,226.93,101.8,226.93,226.92S1333.72,1171.32,1208.59,1171.32Zm0-446.91c-121.31,0-220,98.68-220,220s98.68,220,220,220,220-98.68,220-220S1329.89,724.41,1208.59,724.41Z" transform="translate(-247.3 -120.07)"/></g><g class="cls-23"><path class="cls-24" d="M1108.54,824.45h19V911h-19Z" transform="translate(-247.3 -120.07)"/><path class="cls-24" d="M1143.29,898.4l11.26-13.48c7.79,6.43,16,10.51,25.84,10.51,7.79,0,12.49-3.09,12.49-8.41,0-4.82-3-7.29-17.43-11-17.44-4.46-28.69-9.28-28.69-26.71,0-15.71,12.61-26.1,30.29-26.1a50.11,50.11,0,0,1,32.16,11l-9.9,14.34c-7.66-5.31-15.21-8.53-22.5-8.53s-11.13,3.34-11.13,7.79c0,5.69,3.71,7.55,18.67,11.38,17.56,4.57,27.45,10.88,27.45,26.21,0,17.19-13.11,26.84-31.78,26.84A55.11,55.11,0,0,1,1143.29,898.4Z" transform="translate(-247.3 -120.07)"/><path class="cls-24" d="M1224.55,867.73c0-24.61,19.41-44.76,46.12-44.76s45.88,19.91,45.88,44.76c0,24.61-19.41,44.77-46.13,44.77S1224.55,892.59,1224.55,867.73Zm72.09,0c0-14.84-10.88-27.2-26.22-27.2s-26,12.11-26,27.2c0,14.84,10.88,27.21,26.21,27.21S1296.64,882.82,1296.64,867.73Z" transform="translate(-247.3 -120.07)"/><path class="cls-24" d="M1062.1,1035.37l10-14.47c6.31,5.07,11.62,7.42,18.92,7.42,10.64,0,16.32-8,17.56-19.66-4.2,3.58-10,5.93-17.56,5.93-18.8,0-30.91-10.39-30.91-28.19,0-17.44,13.47-30.3,33-30.3,11.63,0,18.43,2.84,25,9.4,6.19,6.18,10.27,15.58,10.27,32.89,0,28.07-13.24,47.24-37.84,47.24C1077.93,1045.63,1069.4,1041.43,1062.1,1035.37ZM1109,985.65c0-7.66-5.69-13.23-15.21-13.23s-14.71,5.44-14.71,13.36c0,7.67,5.68,13,15.08,13S1109,993.32,1109,985.65Z" transform="translate(-247.3 -120.07)"/><path class="cls-24" d="M1141.75,1000.86c0-25.1,15.58-44.76,38.58-44.76s38.33,19.41,38.33,44.76c0,25.11-15.45,44.77-38.58,44.77S1141.75,1026.21,1141.75,1000.86Zm57.38,0c0-15.7-7.67-27.57-19.05-27.57s-18.79,11.5-18.79,27.57c0,15.83,7.54,27.58,19,27.58S1199.13,1016.82,1199.13,1000.86Z" transform="translate(-247.3 -120.07)"/><path class="cls-24" d="M1232,1000.86c0-25.1,15.58-44.76,38.58-44.76s38.33,19.41,38.33,44.76c0,25.11-15.45,44.77-38.58,44.77S1232,1026.21,1232,1000.86Zm57.38,0c0-15.7-7.67-27.57-19.05-27.57s-18.79,11.5-18.79,27.57c0,15.83,7.54,27.58,19,27.58S1289.41,1016.82,1289.41,1000.86Z" transform="translate(-247.3 -120.07)"/><path class="cls-24" d="M1337,976.26,1321.94,980l-4-15.58,24.86-7.42h13v87.18H1337Z" transform="translate(-247.3 -120.07)"/></g><path class="cls-25" d="M417,1831.37H528.44c6-5.06-4.13-16.56-14.69-17.34-4.58-.34-10.38.62-17,2-1.54-20.36-10.29-111.9-43.29-108.22-37.1,4.11,0,40.31,10.49,61.74,7.77,15.87,16,38.64,19.71,49.38-3,.65-6.13,1.29-9.32,1.88-4.91-15.1-23.21-65.89-46.48-62.93-27.32,3.46-16.34,23.82,3,35.91,14.21,8.89,31.66,21.53,39.95,27.63a118.43,118.43,0,0,1-21.79,1.75C430,1822.72,420.64,1828.35,417,1831.37Z" transform="translate(-247.3 -120.07)"/><path class="cls-25" d="M2566.3,1830.37H2454.89c-6-5.07,4.13-16.57,14.68-17.34,4.59-.35,10.39.61,17,2,1.53-20.36,10.29-111.91,43.29-108.23,37.1,4.12,0,40.32-10.49,61.75-7.77,15.87-16,38.63-19.71,49.37,3,.66,6.13,1.3,9.31,1.88,4.92-15.1,23.22-65.89,46.49-62.93,27.32,3.47,16.34,23.83-3,35.92-14.2,8.89-31.65,21.52-39.94,27.62a118.28,118.28,0,0,0,21.79,1.75C2553.38,1821.72,2562.69,1827.34,2566.3,1830.37Z" transform="translate(-247.3 -120.07)"/></svg>