<svg id="Layer_1" data-name="Layer 1" xmlns="http://www.w3.org/2000/svg" viewBox="0 0 541.41 143"><defs><style>.cls-1{fill:#0e0e52;stroke:#d02f68;stroke-miterlimit:10;stroke-width:7px;}.cls-2{fill:#fff;}.cls-3{fill:#d02f68;}</style></defs><title>logo</title><circle class="cls-1" cx="445.37" cy="71.5" r="68"/><path class="cls-2" d="M538.38,270.76V260.35c22.45-16.24,26.65-19.81,26.65-25,0-3.49-3.34-5.36-7.15-5.36a19.38,19.38,0,0,0-13.83,5.67l-7.38-8.85c5.51-6.06,13.75-8.63,21-8.63,12.2,0,21,6.84,21,17.17,0,8-5.67,14.77-18.57,23.78h19v11.65Z" transform="translate(-136.13 -175)"/><path class="cls-2" d="M608.62,270.76v-9.47H583.83V250.87l19.66-31.93h18.57v30.61h6.29v11.74h-6.29v9.47Zm0-40.17-11.81,19h11.81Z" transform="translate(-136.13 -175)"/><path class="cls-3" d="M648.28,196.46V183.82h-4.57v-3.67H657v3.67h-4.55v12.64Z" transform="translate(-136.13 -175)"/><path class="cls-3" d="M673.33,196.46V185.68l-4.1,10.78h-1.86l-4.13-10.78v10.78H659V180.15h5.84l3.43,9,3.39-9h5.85v16.31Z" transform="translate(-136.13 -175)"/><path class="cls-2" d="M136.13,275.38V218h42.05v12.9H150.92v8.94h26.66v12.9H150.92v9.72h27.26v12.9Z" transform="translate(-136.13 -175)"/><path class="cls-2" d="M211,275.38v-4.13c-2.58,3.1-7.57,5.16-12.9,5.16-6.36,0-14.28-4.38-14.28-13.67,0-10.06,7.92-13.42,14.28-13.42,5.5,0,10.41,1.81,12.9,4.91V250.1c0-3.61-3.1-6.11-8.43-6.11a18.22,18.22,0,0,0-11.61,4.47l-4.9-9.2c5.33-4.55,12.47-6.45,18.83-6.45,10,0,19.35,3.7,19.35,16.6v26Zm0-10.66V261c-1.38-2-4.47-2.92-7.4-2.92-3.44,0-6.62,1.54-6.62,4.81s3.18,4.82,6.62,4.82C206.48,267.73,209.57,266.7,211,264.72Z" transform="translate(-136.13 -175)"/><path class="cls-2" d="M233.83,275.38V233.85h13.24v5.07a18.15,18.15,0,0,1,13-6.19v12.73a11.1,11.1,0,0,0-3.27-.35c-3.44,0-8,1.46-9.72,3.78v26.49Z" transform="translate(-136.13 -175)"/><path class="cls-2" d="M294.2,275.38v-24c0-5.08-2.67-6.88-6.8-6.88a10.26,10.26,0,0,0-8.08,4v26.83H266.08V233.85h13.24v5.07a18.83,18.83,0,0,1,14.45-6.11c9.37,0,13.67,5.51,13.67,13.16v29.41Z" transform="translate(-136.13 -175)"/><path class="cls-2" d="M314.41,254.57c0-12,9-21.76,22-21.76,12.3,0,21.24,9,21.24,23.14v3H328.08c.95,3.69,4.39,6.79,10.41,6.79,2.92,0,7.74-1.29,10.14-3.53l5.77,8.69c-4.13,3.7-11,5.5-17.38,5.5C324.21,276.41,314.41,268.07,314.41,254.57Zm22-11.09c-5.76,0-8,3.44-8.51,6.45H345C344.68,247,342.53,243.48,336.42,243.48Z" transform="translate(-136.13 -175)"/><path class="cls-2" d="M388.71,275.38v-4.13c-2.58,3.1-7.57,5.16-12.9,5.16-6.37,0-14.28-4.38-14.28-13.67,0-10.06,7.91-13.42,14.28-13.42,5.5,0,10.4,1.81,12.9,4.91V250.1c0-3.61-3.1-6.11-8.43-6.11a18.2,18.2,0,0,0-11.61,4.47l-4.9-9.2c5.33-4.55,12.47-6.45,18.83-6.45,10,0,19.35,3.7,19.35,16.6v26Zm0-10.66V261c-1.38-2-4.47-2.92-7.4-2.92-3.44,0-6.62,1.54-6.62,4.81s3.18,4.82,6.62,4.82C384.24,267.73,387.33,266.7,388.71,264.72Z" transform="translate(-136.13 -175)"/><path class="cls-2" d="M408.06,270l5.5-9.46c3.1,2.76,9.72,5.59,14.62,5.59,4,0,5.59-1.11,5.59-2.92,0-5.16-24.16.17-24.16-16.68,0-7.31,6.36-13.68,17.8-13.68a29,29,0,0,1,17.37,5.51l-5.07,9.37a18.59,18.59,0,0,0-12.22-4.56c-3.09,0-5.16,1.21-5.16,2.84,0,4.56,24.08-.17,24.08,16.86,0,7.91-7,13.58-18.83,13.58C420.1,276.41,412.44,273.92,408.06,270Z" transform="translate(-136.13 -175)"/><path class="cls-2" d="M454.24,279.77a7.4,7.4,0,0,0,3.27.77c3,0,4.9-.6,5.67-2.32l.95-2.24-16.6-42.13h13.93l9.46,26.31,9.38-26.31h14l-18.75,47.47c-3.36,8.77-9.55,10.75-17.55,10.92a26.82,26.82,0,0,1-5.67-.69Z" transform="translate(-136.13 -175)"/></svg>