<svg xmlns="http://www.w3.org/2000/svg" xmlns:xlink="http://www.w3.org/1999/xlink" viewBox="0 0 352.08 357.21"><defs><style>.cls-1{fill:none;}.cls-2{isolation:isolate;}.cls-3{clip-path:url(#clip-path);}.cls-4{fill:url(#Áåçûìÿííûé_ãðàäèåíò_71);}.cls-5{fill:url(#Áåçûìÿííûé_ãðàäèåíò_45);}.cls-6{fill:url(#Áåçûìÿííûé_ãðàäèåíò_45-2);}.cls-7{fill:url(#Áåçûìÿííûé_ãðàäèåíò_45-3);}.cls-8{fill:url(#Áåçûìÿííûé_ãðàäèåíò_45-4);}.cls-9{fill:url(#Áåçûìÿííûé_ãðàäèåíò_99);}.cls-10{fill:#542a8d;}.cls-101,.cls-103,.cls-104,.cls-108,.cls-11,.cls-110,.cls-111,.cls-113,.cls-116,.cls-33,.cls-61,.cls-77,.cls-92,.cls-93,.cls-94,.cls-96{opacity:0.69;}.cls-101,.cls-103,.cls-104,.cls-108,.cls-11,.cls-110,.cls-111,.cls-112,.cls-113,.cls-114,.cls-116,.cls-15,.cls-17,.cls-29,.cls-30,.cls-31,.cls-32,.cls-33,.cls-34,.cls-37,.cls-50,.cls-51,.cls-52,.cls-60,.cls-61,.cls-70,.cls-71,.cls-77,.cls-82,.cls-89,.cls-91,.cls-92,.cls-93,.cls-94,.cls-96{mix-blend-mode:multiply;}.cls-11{fill:url(#Áåçûìÿííûé_ãðàäèåíò_97);}.cls-12{fill:url(#Áåçûìÿííûé_ãðàäèåíò_71-2);}.cls-13{fill:url(#Áåçûìÿííûé_ãðàäèåíò_303);}.cls-14{fill:url(#Áåçûìÿííûé_ãðàäèåíò_64);}.cls-114,.cls-15,.cls-17,.cls-29,.cls-30,.cls-31,.cls-32,.cls-34,.cls-37,.cls-50,.cls-82,.cls-89,.cls-91{opacity:0.9;}.cls-15{fill:url(#Áåçûìÿííûé_ãðàäèåíò_41);}.cls-16{fill:url(#Áåçûìÿííûé_ãðàäèåíò_51);}.cls-17{fill:url(#Áåçûìÿííûé_ãðàäèåíò_41-2);}.cls-18{fill:url(#Áåçûìÿííûé_ãðàäèåíò_58);}.cls-19{fill:url(#Áåçûìÿííûé_ãðàäèåíò_340);}.cls-20{fill:url(#Áåçûìÿííûé_ãðàäèåíò_30);}.cls-21{fill:url(#Áåçûìÿííûé_ãðàäèåíò_264);}.cls-22{fill:url(#Áåçûìÿííûé_ãðàäèåíò_25);}.cls-23{fill:#bf5b71;}.cls-24{fill:url(#Áåçûìÿííûé_ãðàäèåíò_325);}.cls-25{fill:url(#Áåçûìÿííûé_ãðàäèåíò_325-2);}.cls-26{fill:url(#Áåçûìÿííûé_ãðàäèåíò_67);}.cls-27{fill:url(#Áåçûìÿííûé_ãðàäèåíò_66);}.cls-28{fill:url(#Áåçûìÿííûé_ãðàäèåíò_45-5);}.cls-29{fill:url(#Áåçûìÿííûé_ãðàäèåíò_41-3);}.cls-30{fill:url(#Áåçûìÿííûé_ãðàäèåíò_41-4);}.cls-31{fill:url(#Áåçûìÿííûé_ãðàäèåíò_41-5);}.cls-32{fill:url(#Áåçûìÿííûé_ãðàäèåíò_41-6);}.cls-33{fill:url(#Áåçûìÿííûé_ãðàäèåíò_41-7);}.cls-34{fill:#8b92ab;}.cls-102,.cls-107,.cls-109,.cls-121,.cls-35,.cls-36,.cls-41,.cls-44,.cls-45,.cls-46,.cls-75,.cls-90,.cls-97{mix-blend-mode:soft-light;}.cls-35{fill:url(#Áåçûìÿííûé_ãðàäèåíò_41-8);}.cls-36{fill:url(#Áåçûìÿííûé_ãðàäèåíò_41-9);}.cls-37{fill:url(#Áåçûìÿííûé_ãðàäèåíò_41-10);}.cls-38{fill:url(#Áåçûìÿííûé_ãðàäèåíò_160);}.cls-39{fill:url(#Áåçûìÿííûé_ãðàäèåíò_25-2);}.cls-40{fill:url(#Áåçûìÿííûé_ãðàäèåíò_9);}.cls-41{fill:url(#Áåçûìÿííûé_ãðàäèåíò_41-11);}.cls-42{fill:url(#Áåçûìÿííûé_ãðàäèåíò_45-6);}.cls-43{fill:url(#Áåçûìÿííûé_ãðàäèåíò_143);}.cls-44{fill:url(#Áåçûìÿííûé_ãðàäèåíò_146);}.cls-45{fill:url(#Áåçûìÿííûé_ãðàäèåíò_41-12);}.cls-46{fill:url(#Áåçûìÿííûé_ãðàäèåíò_147);}.cls-47{mix-blend-mode:screen;fill:url(#Áåçûìÿííûé_ãðàäèåíò_152);}.cls-48{fill:url(#Áåçûìÿííûé_ãðàäèåíò_65);}.cls-49{fill:url(#Áåçûìÿííûé_ãðàäèåíò_65-2);}.cls-50{fill:#777f9c;}.cls-107,.cls-51,.cls-52,.cls-60,.cls-90{opacity:0.5;}.cls-51{fill:url(#Áåçûìÿííûé_ãðàäèåíò_41-13);}.cls-52{fill:url(#Áåçûìÿííûé_ãðàäèåíò_41-14);}.cls-53{fill:url(#Áåçûìÿííûé_ãðàäèåíò_65-3);}.cls-54{fill:url(#Áåçûìÿííûé_ãðàäèåíò_160-2);}.cls-55{fill:url(#Áåçûìÿííûé_ãðàäèåíò_160-3);}.cls-56{fill:#d9d2f9;}.cls-57{fill:url(#Áåçûìÿííûé_ãðàäèåíò_171);}.cls-58{fill:url(#Áåçûìÿííûé_ãðàäèåíò_264-2);}.cls-59{fill:url(#Áåçûìÿííûé_ãðàäèåíò_174);}.cls-60{fill:url(#Áåçûìÿííûé_ãðàäèåíò_41-15);}.cls-61{fill:url(#Áåçûìÿííûé_ãðàäèåíò_41-16);}.cls-62{fill:url(#Áåçûìÿííûé_ãðàäèåíò_334);}.cls-63{fill:url(#Áåçûìÿííûé_ãðàäèåíò_336);}.cls-64{fill:#ffa693;}.cls-65{fill:url(#Áåçûìÿííûé_ãðàäèåíò_350);}.cls-66{fill:url(#Áåçûìÿííûé_ãðàäèåíò_350-2);}.cls-67{fill:url(#Áåçûìÿííûé_ãðàäèåíò_143-2);}.cls-68{fill:url(#Áåçûìÿííûé_ãðàäèåíò_143-3);}.cls-69{fill:url(#Áåçûìÿííûé_ãðàäèåíò_143-4);}.cls-70,.cls-72{fill:#cfe0ff;}.cls-73{fill:#95a2ff;}.cls-74{fill:#fff;}.cls-75{fill:url(#Áåçûìÿííûé_ãðàäèåíò_13);}.cls-76{fill:#1f227c;}.cls-77{fill:url(#Áåçûìÿííûé_ãðàäèåíò_97-2);}.cls-78{fill:url(#Áåçûìÿííûé_ãðàäèåíò_264-3);}.cls-79{fill:url(#Áåçûìÿííûé_ãðàäèåíò_71-3);}.cls-80{fill:url(#Áåçûìÿííûé_ãðàäèåíò_303-2);}.cls-81{fill:url(#Áåçûìÿííûé_ãðàäèåíò_275);}.cls-82{fill:url(#Áåçûìÿííûé_ãðàäèåíò_41-17);}.cls-83{fill:url(#Áåçûìÿííûé_ãðàäèåíò_71-4);}.cls-84{fill:url(#Áåçûìÿííûé_ãðàäèåíò_264-4);}.cls-85{fill:url(#Áåçûìÿííûé_ãðàäèåíò_325-3);}.cls-86{fill:url(#Áåçûìÿííûé_ãðàäèåíò_325-4);}.cls-87{fill:url(#Áåçûìÿííûé_ãðàäèåíò_190);}.cls-88{fill:url(#Áåçûìÿííûé_ãðàäèåíò_191);}.cls-89{fill:url(#Áåçûìÿííûé_ãðàäèåíò_328);}.cls-90{fill:url(#Áåçûìÿííûé_ãðàäèåíò_192);}.cls-91{fill:url(#Áåçûìÿííûé_ãðàäèåíò_193);}.cls-92{fill:url(#Áåçûìÿííûé_ãðàäèåíò_238);}.cls-93{fill:url(#Áåçûìÿííûé_ãðàäèåíò_200);}.cls-94{fill:url(#Áåçûìÿííûé_ãðàäèåíò_41-18);}.cls-95{fill:url(#Áåçûìÿííûé_ãðàäèåíò_211);}.cls-96{fill:url(#Áåçûìÿííûé_ãðàäèåíò_283);}.cls-97{fill:url(#Áåçûìÿííûé_ãðàäèåíò_234);}.cls-98{fill:url(#Áåçûìÿííûé_ãðàäèåíò_25-3);}.cls-99{fill:url(#Áåçûìÿííûé_ãðàäèåíò_9-2);}.cls-100{fill:url(#Áåçûìÿííûé_ãðàäèåíò_71-5);}.cls-101{fill:url(#Áåçûìÿííûé_ãðàäèåíò_233);}.cls-102{fill:url(#Áåçûìÿííûé_ãðàäèåíò_237);}.cls-103{fill:url(#Áåçûìÿííûé_ãðàäèåíò_41-19);}.cls-104{fill:url(#Áåçûìÿííûé_ãðàäèåíò_233-2);}.cls-105{fill:url(#Áåçûìÿííûé_ãðàäèåíò_45-7);}.cls-106{fill:url(#Áåçûìÿííûé_ãðàäèåíò_25-4);}.cls-107{fill:url(#Áåçûìÿííûé_ãðàäèåíò_192-2);}.cls-108{fill:url(#Áåçûìÿííûé_ãðàäèåíò_233-3);}.cls-109{fill:url(#Áåçûìÿííûé_ãðàäèåíò_269);}.cls-110{fill:url(#Áåçûìÿííûé_ãðàäèåíò_41-20);}.cls-111{fill:url(#Áåçûìÿííûé_ãðàäèåíò_41-21);}.cls-112{opacity:0.4;fill:url(#Áåçûìÿííûé_ãðàäèåíò_277);}.cls-113{fill:url(#Áåçûìÿííûé_ãðàäèåíò_41-22);}.cls-114{fill:#866fc2;}.cls-115{fill:url(#Áåçûìÿííûé_ãðàäèåíò_329);}.cls-116{fill:url(#Áåçûìÿííûé_ãðàäèåíò_41-23);}.cls-117{fill:url(#Áåçûìÿííûé_ãðàäèåíò_350-3);}.cls-118{fill:url(#Áåçûìÿííûé_ãðàäèåíò_143-5);}.cls-119{fill:url(#Áåçûìÿííûé_ãðàäèåíò_143-6);}.cls-120{fill:url(#Áåçûìÿííûé_ãðàäèåíò_143-7);}.cls-121{fill:url(#Áåçûìÿííûé_ãðàäèåíò_13-2);}</style><clipPath id="clip-path" transform="translate(-323.59 -64.74)"><rect class="cls-1" width="700" height="400"/></clipPath><linearGradient id="Áåçûìÿííûé_ãðàäèåíò_71" x1="603.18" y1="270.11" x2="603.18" y2="194.44" gradientUnits="userSpaceOnUse"><stop offset="0.02" stop-color="#ffc2a9"/><stop offset="1" stop-color="#ff9595"/></linearGradient><linearGradient id="Áåçûìÿííûé_ãðàäèåíò_45" x1="591.76" y1="231.11" x2="591.76" y2="222.35" gradientUnits="userSpaceOnUse"><stop offset="0" stop-color="#ff817f"/><stop offset="1" stop-color="#cf6074"/></linearGradient><linearGradient id="Áåçûìÿííûé_ãðàäèåíò_45-2" x1="594.15" y1="216.31" x2="594.15" y2="213.41" xlink:href="#Áåçûìÿííûé_ãðàäèåíò_45"/><linearGradient id="Áåçûìÿííûé_ãðàäèåíò_45-3" x1="600.95" y1="213.41" x2="600.95" y2="212.12" xlink:href="#Áåçûìÿííûé_ãðàäèåíò_45"/><linearGradient id="Áåçûìÿííûé_ãðàäèåíò_45-4" x1="608.13" y1="212.57" x2="608.13" y2="211.77" xlink:href="#Áåçûìÿííûé_ãðàäèåíò_45"/><linearGradient id="Áåçûìÿííûé_ãðàäèåíò_99" x1="571.06" y1="202.07" x2="571.06" y2="194.87" gradientUnits="userSpaceOnUse"><stop offset="0" stop-color="#ffa7a7"/><stop offset="0.98" stop-color="#ffc2a9"/></linearGradient><linearGradient id="Áåçûìÿííûé_ãðàäèåíò_97" x1="626.35" y1="396.54" x2="626.35" y2="370.68" gradientUnits="userSpaceOnUse"><stop offset="0" stop-color="#979dd3"/><stop offset="1" stop-color="#9486a4"/></linearGradient><linearGradient id="Áåçûìÿííûé_ãðàäèåíò_71-2" x1="612.65" y1="241.55" x2="612.65" y2="101.68" xlink:href="#Áåçûìÿííûé_ãðàäèåíò_71"/><linearGradient id="Áåçûìÿííûé_ãðàäèåíò_303" x1="608.38" y1="224.58" x2="608.38" y2="147.65" gradientUnits="userSpaceOnUse"><stop offset="0.01" stop-color="#f48781"/><stop offset="1" stop-color="#ef7a8e"/></linearGradient><linearGradient id="Áåçûìÿííûé_ãðàäèåíò_64" x1="613.82" y1="194.45" x2="613.82" y2="100.85" gradientUnits="userSpaceOnUse"><stop offset="0" stop-color="#8c1170"/><stop offset="1" stop-color="#dd4065"/></linearGradient><linearGradient id="Áåçûìÿííûé_ãðàäèåíò_41" x1="633.69" y1="136.79" x2="633.69" y2="107.19" gradientUnits="userSpaceOnUse"><stop offset="0" stop-color="#ccb8ff"/><stop offset="1" stop-color="#af8bc2"/></linearGradient><linearGradient id="Áåçûìÿííûé_ãðàäèåíò_51" x1="595.34" y1="159.5" x2="595.34" y2="119.29" gradientUnits="userSpaceOnUse"><stop offset="0" stop-color="#c1117c"/><stop offset="1" stop-color="#dd4065"/></linearGradient><linearGradient id="Áåçûìÿííûé_ãðàäèåíò_41-2" x1="613.82" y1="194.13" x2="613.82" y2="107.19" xlink:href="#Áåçûìÿííûé_ãðàäèåíò_41"/><linearGradient id="Áåçûìÿííûé_ãðàäèåíò_58" x1="637.08" y1="123.08" x2="637.08" y2="77.3" gradientUnits="userSpaceOnUse"><stop offset="0" stop-color="#b9116b"/><stop offset="1" stop-color="#dd4065"/></linearGradient><linearGradient id="Áåçûìÿííûé_ãðàäèåíò_340" x1="551.34" y1="340.44" x2="551.34" y2="187.43" gradientUnits="userSpaceOnUse"><stop offset="0" stop-color="#f77"/><stop offset="0.98" stop-color="#ffc2a9"/></linearGradient><linearGradient id="Áåçûìÿííûé_ãðàäèåíò_30" x1="539.19" y1="261.39" x2="539.19" y2="247.13" gradientUnits="userSpaceOnUse"><stop offset="0.02" stop-color="#ffa58b"/><stop offset="1" stop-color="#ff898e"/></linearGradient><linearGradient id="Áåçûìÿííûé_ãðàäèåíò_264" x1="546.43" y1="255.08" x2="546.43" y2="189.99" gradientUnits="userSpaceOnUse"><stop offset="0" stop-color="#b9acf4"/><stop offset="1" stop-color="#e1d1f5"/></linearGradient><linearGradient id="Áåçûìÿííûé_ãðàäèåíò_25" x1="617.06" y1="381.19" x2="617.06" y2="220.68" gradientUnits="userSpaceOnUse"><stop offset="0" stop-color="#8642a0"/><stop offset="1" stop-color="#6456c0"/></linearGradient><linearGradient id="Áåçûìÿííûé_ãðàäèåíò_325" x1="604.71" y1="183.25" x2="604.71" y2="173.42" gradientUnits="userSpaceOnUse"><stop offset="0" stop-color="#db5f69"/><stop offset="1" stop-color="#dc505e"/></linearGradient><linearGradient id="Áåçûìÿííûé_ãðàäèåíò_325-2" x1="604.14" y1="186.81" x2="604.14" y2="170.26" xlink:href="#Áåçûìÿííûé_ãðàäèåíò_325"/><linearGradient id="Áåçûìÿííûé_ãðàäèåíò_67" x1="608.9" y1="190.94" x2="608.9" y2="184.6" gradientUnits="userSpaceOnUse"><stop offset="0" stop-color="#ff9595"/><stop offset="0.98" stop-color="#ffc2a9"/></linearGradient><linearGradient id="Áåçûìÿííûé_ãðàäèåíò_66" x1="606.61" y1="184.41" x2="606.61" y2="164.26" xlink:href="#Áåçûìÿííûé_ãðàäèåíò_67"/><linearGradient id="Áåçûìÿííûé_ãðàäèåíò_45-5" x1="614.92" y1="191.02" x2="614.92" y2="184.6" xlink:href="#Áåçûìÿííûé_ãðàäèåíò_45"/><linearGradient id="Áåçûìÿííûé_ãðàäèåíò_41-3" x1="637.08" y1="123.08" x2="637.08" y2="78.6" xlink:href="#Áåçûìÿííûé_ãðàäèåíò_41"/><linearGradient id="Áåçûìÿííûé_ãðàäèåíò_41-4" x1="640.55" y1="101.19" x2="640.55" y2="86.89" xlink:href="#Áåçûìÿííûé_ãðàäèåíò_41"/><linearGradient id="Áåçûìÿííûé_ãðàäèåíò_41-5" x1="638.13" y1="94.5" x2="638.13" y2="77.21" xlink:href="#Áåçûìÿííûé_ãðàäèåíò_41"/><linearGradient id="Áåçûìÿííûé_ãðàäèåíò_41-6" x1="639.19" y1="234.18" x2="639.19" y2="220.68" xlink:href="#Áåçûìÿííûé_ãðàäèåíò_41"/><linearGradient id="Áåçûìÿííûé_ãðàäèåíò_41-7" x1="617.06" y1="381.21" x2="617.06" y2="244.54" xlink:href="#Áåçûìÿííûé_ãðàäèåíò_41"/><linearGradient id="Áåçûìÿííûé_ãðàäèåíò_41-8" x1="590.88" y1="291.53" x2="590.88" y2="227.43" xlink:href="#Áåçûìÿííûé_ãðàäèåíò_41"/><linearGradient id="Áåçûìÿííûé_ãðàäèåíò_41-9" x1="597.7" y1="245.91" x2="597.7" y2="227.43" xlink:href="#Áåçûìÿííûé_ãðàäèåíò_41"/><linearGradient id="Áåçûìÿííûé_ãðàäèåíò_41-10" x1="592.27" y1="291.08" x2="592.27" y2="240.68" xlink:href="#Áåçûìÿííûé_ãðàäèåíò_41"/><linearGradient id="Áåçûìÿííûé_ãðàäèåíò_160" x1="548.13" y1="251.86" x2="548.13" y2="189.99" gradientUnits="userSpaceOnUse"><stop offset="0" stop-color="#9c91de"/><stop offset="1" stop-color="#cf95ff"/></linearGradient><linearGradient id="Áåçûìÿííûé_ãðàäèåíò_25-2" x1="225.31" y1="182.95" x2="252.97" y2="182.95" xlink:href="#Áåçûìÿííûé_ãðàäèåíò_25"/><linearGradient id="Áåçûìÿííûé_ãðàäèåíò_9" x1="548.55" y1="247.71" x2="548.55" y2="194.11" gradientUnits="userSpaceOnUse"><stop offset="0" stop-color="#fff"/><stop offset="1" stop-color="#c0d6ff"/></linearGradient><linearGradient id="Áåçûìÿííûé_ãðàäèåíò_41-11" x1="626.48" y1="229.46" x2="626.48" y2="224.71" xlink:href="#Áåçûìÿííûé_ãðàäèåíò_41"/><linearGradient id="Áåçûìÿííûé_ãðàäèåíò_45-6" x1="535.69" y1="244.96" x2="535.69" y2="232.26" xlink:href="#Áåçûìÿííûé_ãðàäèåíò_45"/><linearGradient id="Áåçûìÿííûé_ãðàäèåíò_143" x1="588.5" y1="159.56" x2="588.5" y2="148.09" gradientUnits="userSpaceOnUse"><stop offset="0" stop-color="#009cff"/><stop offset="1" stop-color="#905995"/></linearGradient><linearGradient id="Áåçûìÿííûé_ãðàäèåíò_146" x1="589.95" y1="129.19" x2="589.95" y2="101.57" gradientUnits="userSpaceOnUse"><stop offset="0" stop-color="#f7f9ff"/><stop offset="1" stop-color="#af8bc2"/></linearGradient><linearGradient id="Áåçûìÿííûé_ãðàäèåíò_41-12" x1="590.15" y1="149.14" x2="590.15" y2="126.05" xlink:href="#Áåçûìÿííûé_ãðàäèåíò_41"/><linearGradient id="Áåçûìÿííûé_ãðàäèåíò_147" x1="618.72" y1="110.82" x2="618.72" y2="78.22" gradientUnits="userSpaceOnUse"><stop offset="0" stop-color="#af8bc2"/><stop offset="1" stop-color="#f7f9ff"/></linearGradient><linearGradient id="Áåçûìÿííûé_ãðàäèåíò_152" x1="598.82" y1="331.58" x2="611.14" y2="338.41" gradientUnits="userSpaceOnUse"><stop offset="0" stop-color="#7540ff"/><stop offset="1"/></linearGradient><linearGradient id="Áåçûìÿííûé_ãðàäèåíò_65" x1="631.55" y1="224.58" x2="631.55" y2="186.01" gradientUnits="userSpaceOnUse"><stop offset="0" stop-color="#dd4065"/><stop offset="1" stop-color="#8c1170"/></linearGradient><linearGradient id="Áåçûìÿííûé_ãðàäèåíò_65-2" x1="642.94" y1="211.33" x2="642.94" y2="189.99" xlink:href="#Áåçûìÿííûé_ãðàäèåíò_65"/><linearGradient id="Áåçûìÿííûé_ãðàäèåíò_41-13" x1="612.2" y1="160.84" x2="640.28" y2="160.84" xlink:href="#Áåçûìÿííûé_ãðàäèåíò_41"/><linearGradient id="Áåçûìÿííûé_ãðàäèåíò_41-14" x1="623.55" y1="178.94" x2="663.2" y2="178.94" xlink:href="#Áåçûìÿííûé_ãðàäèåíò_41"/><linearGradient id="Áåçûìÿííûé_ãðàäèåíò_65-3" x1="635.96" y1="231.21" x2="635.96" y2="191.45" xlink:href="#Áåçûìÿííûé_ãðàäèåíò_65"/><linearGradient id="Áåçûìÿííûé_ãðàäèåíò_160-2" x1="521.02" y1="213.27" x2="528.09" y2="213.27" xlink:href="#Áåçûìÿííûé_ãðàäèåíò_160"/><linearGradient id="Áåçûìÿííûé_ãðàäèåíò_160-3" x1="527.71" y1="221.93" x2="531.69" y2="221.93" xlink:href="#Áåçûìÿííûé_ãðàäèåíò_160"/><linearGradient id="Áåçûìÿííûé_ãðàäèåíò_171" x1="529.7" y1="196.01" x2="544.35" y2="196.01" gradientUnits="userSpaceOnUse"><stop offset="0" stop-color="#7f6dde"/><stop offset="1" stop-color="#865eff"/></linearGradient><linearGradient id="Áåçûìÿííûé_ãðàäèåíò_264-2" x1="537.25" y1="198.49" x2="537.25" y2="194.36" xlink:href="#Áåçûìÿííûé_ãðàäèåíò_264"/><linearGradient id="Áåçûìÿííûé_ãðàäèåíò_174" x1="240.09" y1="180.6" x2="240.09" y2="177.84" gradientUnits="userSpaceOnUse"><stop offset="0" stop-color="#00d6ff"/><stop offset="1" stop-color="#6fffff"/></linearGradient><linearGradient id="Áåçûìÿííûé_ãðàäèåíò_41-15" x1="627.6" y1="93.39" x2="651.87" y2="93.39" xlink:href="#Áåçûìÿííûé_ãðàäèåíò_41"/><linearGradient id="Áåçûìÿííûé_ãðàäèåíò_41-16" x1="648.62" y1="327.85" x2="665.38" y2="327.85" xlink:href="#Áåçûìÿííûé_ãðàäèåíò_41"/><radialGradient id="Áåçûìÿííûé_ãðàäèåíò_334" cx="596.28" cy="334.29" r="21.7" gradientUnits="userSpaceOnUse"><stop offset="0" stop-color="#009cff"/><stop offset="1" stop-color="#9059ae"/></radialGradient><linearGradient id="Áåçûìÿííûé_ãðàäèåíò_336" x1="574.12" y1="400" x2="574.12" y2="374.28" gradientUnits="userSpaceOnUse"><stop offset="0" stop-color="#9059ae"/><stop offset="1" stop-color="#009cff"/></linearGradient><linearGradient id="Áåçûìÿííûé_ãðàäèåíò_350" x1="622.79" y1="341.48" x2="622.79" y2="331.16" gradientUnits="userSpaceOnUse"><stop offset="0" stop-color="#8642a0"/><stop offset="0.52" stop-color="#6365d1"/><stop offset="1" stop-color="#64abfe"/></linearGradient><linearGradient id="Áåçûìÿííûé_ãðàäèåíò_350-2" x1="595.73" y1="376.92" x2="595.73" y2="364.56" xlink:href="#Áåçûìÿííûé_ãðàäèåíò_350"/><linearGradient id="Áåçûìÿííûé_ãðàäèåíò_143-2" x1="652.77" y1="189.99" x2="652.77" y2="135.48" xlink:href="#Áåçûìÿííûé_ãðàäèåíò_143"/><linearGradient id="Áåçûìÿííûé_ãðàäèåíò_143-3" x1="641.58" y1="231.21" x2="641.58" y2="214.73" xlink:href="#Áåçûìÿííûé_ãðàäèåíò_143"/><linearGradient id="Áåçûìÿííûé_ãðàäèåíò_143-4" x1="656.77" y1="234.18" x2="656.77" y2="220.93" xlink:href="#Áåçûìÿííûé_ãðàäèåíò_143"/><linearGradient id="Áåçûìÿííûé_ãðàäèåíò_13" x1="538.41" y1="224.91" x2="565.38" y2="224.91" gradientUnits="userSpaceOnUse"><stop offset="0" stop-color="#fff"/><stop offset="1" stop-color="#af8bc2"/></linearGradient><linearGradient id="Áåçûìÿííûé_ãðàäèåíò_97-2" x1="392.86" y1="410.39" x2="392.86" y2="373.83" xlink:href="#Áåçûìÿííûé_ãðàäèåíò_97"/><linearGradient id="Áåçûìÿííûé_ãðàäèåíò_264-3" x1="345.03" y1="356.71" x2="345.03" y2="235.94" xlink:href="#Áåçûìÿííûé_ãðàäèåíò_264"/><linearGradient id="Áåçûìÿííûé_ãðàäèåíò_71-3" x1="394.26" y1="200.99" x2="394.26" y2="74.45" xlink:href="#Áåçûìÿííûé_ãðàäèåíò_71"/><linearGradient id="Áåçûìÿííûé_ãðàäèåíò_303-2" x1="401.2" y1="180.78" x2="401.2" y2="107.59" xlink:href="#Áåçûìÿííûé_ãðàäèåíò_303"/><linearGradient id="Áåçûìÿííûé_ãðàäèåíò_275" x1="397.92" y1="171.67" x2="397.92" y2="64.79" gradientUnits="userSpaceOnUse"><stop offset="0" stop-color="#382763"/><stop offset="1" stop-color="#5b38ae"/></linearGradient><linearGradient id="Áåçûìÿííûé_ãðàäèåíò_41-17" x1="399.17" y1="171.67" x2="399.17" y2="94.5" xlink:href="#Áåçûìÿííûé_ãðàäèåíò_41"/><linearGradient id="Áåçûìÿííûé_ãðàäèåíò_71-4" x1="476.09" y1="263.97" x2="476.09" y2="168.5" xlink:href="#Áåçûìÿííûé_ãðàäèåíò_71"/><linearGradient id="Áåçûìÿííûé_ãðàäèåíò_264-4" x1="416.33" y1="363.11" x2="416.33" y2="186.14" xlink:href="#Áåçûìÿííûé_ãðàäèåíò_264"/><linearGradient id="Áåçûìÿííûé_ãðàäèåíò_325-3" x1="410.51" y1="150.68" x2="410.51" y2="128.83" xlink:href="#Áåçûìÿííûé_ãðàäèåíò_325"/><linearGradient id="Áåçûìÿííûé_ãðàäèåíò_325-4" x1="410.28" y1="146.56" x2="410.28" y2="131.11" xlink:href="#Áåçûìÿííûé_ãðàäèåíò_325"/><linearGradient id="Áåçûìÿííûé_ãðàäèåíò_190" x1="408.45" y1="144.75" x2="408.45" y2="124.41" xlink:href="#Áåçûìÿííûé_ãðàäèåíò_67"/><linearGradient id="Áåçûìÿííûé_ãðàäèåíò_191" x1="407.85" y1="154.85" x2="407.85" y2="150.68" xlink:href="#Áåçûìÿííûé_ãðàäèåíò_71"/><linearGradient id="Áåçûìÿííûé_ãðàäèåíò_328" x1="350.39" y1="92.65" x2="388.36" y2="92.65" gradientUnits="userSpaceOnUse"><stop offset="0" stop-color="#af8bc2"/><stop offset="1" stop-color="#ccb8ff"/></linearGradient><linearGradient id="Áåçûìÿííûé_ãðàäèåíò_192" x1="350.53" y1="82.7" x2="446.55" y2="82.7" xlink:href="#Áåçûìÿííûé_ãðàäèåíò_147"/><linearGradient id="Áåçûìÿííûé_ãðàäèåíò_193" x1="380.45" y1="134.53" x2="380.45" y2="102.47" xlink:href="#Áåçûìÿííûé_ãðàäèåíò_328"/><linearGradient id="Áåçûìÿííûé_ãðàäèåíò_238" x1="374.91" y1="213.96" x2="374.91" y2="186.14" xlink:href="#Áåçûìÿííûé_ãðàäèåíò_328"/><linearGradient id="Áåçûìÿííûé_ãðàäèåíò_200" x1="456.02" y1="326.84" x2="456.02" y2="219.33" gradientUnits="userSpaceOnUse"><stop offset="0" stop-color="#eee8ff"/><stop offset="0.99" stop-color="#af8bc2"/></linearGradient><linearGradient id="Áåçûìÿííûé_ãðàäèåíò_41-18" x1="417.8" y1="291.35" x2="431.12" y2="291.35" xlink:href="#Áåçûìÿííûé_ãðàäèåíò_41"/><linearGradient id="Áåçûìÿííûé_ãðàäèåíò_211" x1="378.74" y1="380.32" x2="378.74" y2="199.77" gradientUnits="userSpaceOnUse"><stop offset="0" stop-color="#6d1aa4"/><stop offset="1" stop-color="#9c3bab"/></linearGradient><linearGradient id="Áåçûìÿííûé_ãðàäèåíò_283" x1="378.74" y1="380.32" x2="378.74" y2="200.99" gradientUnits="userSpaceOnUse"><stop offset="0" stop-color="#7e2ca9"/><stop offset="1" stop-color="#a490ff"/></linearGradient><linearGradient id="Áåçûìÿííûé_ãðàäèåíò_234" x1="395.84" y1="204.4" x2="426.86" y2="221.6" xlink:href="#Áåçûìÿííûé_ãðàäèåíò_328"/><linearGradient id="Áåçûìÿííûé_ãðàäèåíò_25-3" x1="474.83" y1="232.79" x2="474.83" y2="161.42" xlink:href="#Áåçûìÿííûé_ãðàäèåíò_25"/><linearGradient id="Áåçûìÿííûé_ãðàäèåíò_9-2" x1="474.38" y1="229.71" x2="474.38" y2="165.74" xlink:href="#Áåçûìÿííûé_ãðàäèåíò_9"/><linearGradient id="Áåçûìÿííûé_ãðàäèåíò_71-5" x1="493.66" y1="238.1" x2="493.66" y2="186.14" xlink:href="#Áåçûìÿííûé_ãðàäèåíò_71"/><linearGradient id="Áåçûìÿííûé_ãðàäèåíò_233" x1="393.23" y1="355.8" x2="393.23" y2="325.99" gradientUnits="userSpaceOnUse"><stop offset="0" stop-color="#7e2ca9"/><stop offset="1" stop-color="#ccb8ff"/></linearGradient><linearGradient id="Áåçûìÿííûé_ãðàäèåíò_237" x1="451.87" y1="277.68" x2="451.87" y2="225.64" gradientUnits="userSpaceOnUse"><stop offset="0" stop-color="#af8bc2"/><stop offset="1" stop-color="#e9e0ff"/></linearGradient><linearGradient id="Áåçûìÿííûé_ãðàäèåíò_41-19" x1="481.77" y1="252.58" x2="495.32" y2="252.58" xlink:href="#Áåçûìÿííûé_ãðàäèåíò_41"/><linearGradient id="Áåçûìÿííûé_ãðàäèåíò_233-2" x1="474.07" y1="163.96" x2="487.59" y2="163.96" xlink:href="#Áåçûìÿííûé_ãðàäèåíò_233"/><linearGradient id="Áåçûìÿííûé_ãðàäèåíò_45-7" x1="478.38" y1="241.09" x2="478.38" y2="225.65" xlink:href="#Áåçûìÿííûé_ãðàäèåíò_45"/><linearGradient id="Áåçûìÿííûé_ãðàäèåíò_25-4" x1="497.05" y1="180.98" x2="497.05" y2="171.03" xlink:href="#Áåçûìÿííûé_ãðàäèåíò_25"/><linearGradient id="Áåçûìÿííûé_ãðàäèåíò_192-2" x1="422.38" y1="125.46" x2="422.38" y2="87.32" xlink:href="#Áåçûìÿííûé_ãðàäèåíò_147"/><linearGradient id="Áåçûìÿííûé_ãðàäèåíò_233-3" x1="345.03" y1="284.75" x2="345.03" y2="249.89" xlink:href="#Áåçûìÿííûé_ãðàäèåíò_233"/><linearGradient id="Áåçûìÿííûé_ãðàäèåíò_269" x1="323.77" y1="255.53" x2="366.28" y2="279.1" xlink:href="#Áåçûìÿííûé_ãðàäèåíò_41"/><linearGradient id="Áåçûìÿííûé_ãðàäèåíò_41-20" x1="435.17" y1="282.26" x2="435.17" y2="225" xlink:href="#Áåçûìÿííûé_ãðàäèåíò_41"/><linearGradient id="Áåçûìÿííûé_ãðàäèåíò_41-21" x1="490.88" y1="312.88" x2="490.88" y2="279.41" xlink:href="#Áåçûìÿííûé_ãðàäèåíò_41"/><linearGradient id="Áåçûìÿííûé_ãðàäèåíò_277" x1="419.41" y1="272.05" x2="460.17" y2="272.05" gradientUnits="userSpaceOnUse"><stop offset="0.01" stop-color="#af8bc2"/><stop offset="1" stop-color="#eee8ff"/></linearGradient><linearGradient id="Áåçûìÿííûé_ãðàäèåíò_41-22" x1="431.12" y1="286.84" x2="462.39" y2="286.84" xlink:href="#Áåçûìÿííûé_ãðàäèåíò_41"/><linearGradient id="Áåçûìÿííûé_ãðàäèåíò_329" x1="427.4" y1="365.35" x2="427.4" y2="297.51" gradientUnits="userSpaceOnUse"><stop offset="0" stop-color="#905995"/><stop offset="1" stop-color="#009cff"/></linearGradient><linearGradient id="Áåçûìÿííûé_ãðàäèåíò_41-23" x1="503.03" y1="326.24" x2="503.03" y2="303.48" xlink:href="#Áåçûìÿííûé_ãðàäèåíò_41"/><linearGradient id="Áåçûìÿííûé_ãðàäèåíò_350-3" x1="418.4" y1="376.53" x2="418.4" y2="365.35" xlink:href="#Áåçûìÿííûé_ãðàäèåíò_350"/><linearGradient id="Áåçûìÿííûé_ãðàäèåíò_143-5" x1="349.18" y1="134.06" x2="370.76" y2="134.06" xlink:href="#Áåçûìÿííûé_ãðàäèåíò_143"/><linearGradient id="Áåçûìÿííûé_ãðàäèåíò_143-6" x1="349.81" y1="80.57" x2="403.33" y2="80.57" xlink:href="#Áåçûìÿííûé_ãðàäèåíò_143"/><linearGradient id="Áåçûìÿííûé_ãðàäèåíò_143-7" x1="323.59" y1="238.74" x2="347.12" y2="238.74" xlink:href="#Áåçûìÿííûé_ãðàäèåíò_143"/><linearGradient id="Áåçûìÿííûé_ãðàäèåíò_13-2" x1="132.68" y1="138.92" x2="164.99" y2="138.92" xlink:href="#Áåçûìÿííûé_ãðàäèåíò_13"/></defs><title>691 [Converted]</title><g class="cls-2"><g id="Couple"><g class="cls-3"><path class="cls-4" d="M609.09,241.81s-7.73,1-10.63,0-11.87-6.76-12.56-8.83S588,222.35,588,222.35s-4.55-6.36-7.87-9-6.35-4.55-9.11-8.14-4.48-9.53-2.21-10.77c1-.52,8.84,9.39,13.67,13.94a34.8,34.8,0,0,0,9.53,6.49s3.2-2.07,5.19-2.35l2,.56a19.14,19.14,0,0,1,5.53-1.18l1.24.55s2.9-1,4.76-.62c0,0,2.69,2.49,5.41,11.32a42.15,42.15,0,0,1,2,14.08s13.25,18.5,20.57,25.27c0,0-2.49,5.94-8.7,7.59Z" transform="translate(-323.59 -64.74)"/><path class="cls-5" d="M588,222.35s6.25,5.93,7.87,8.76l-3.93-.48s.62-2.32,0-3.65-4.23-3.7-4.23-3.7Z" transform="translate(-323.59 -64.74)"/><path class="cls-6" d="M592,214.89l4.34,1.42s-1.28-3.1-1.7-2.89S592,214.89,592,214.89Z" transform="translate(-323.59 -64.74)"/><path class="cls-7" d="M599.15,213.1l2.45.31,1.14-1.29Z" transform="translate(-323.59 -64.74)"/><path class="cls-8" d="M605.92,212.47a5.71,5.71,0,0,0,2,0c.88-.2,2.42-.68,2.42-.68A11.39,11.39,0,0,0,605.92,212.47Z" transform="translate(-323.59 -64.74)"/><path class="cls-9" d="M568.26,197.72s1.35,3.42,2.75,4.19,2.81-1.51,2.85-2.09-3.37-5.11-4.23-4.95S568.32,197,568.26,197.72Z" transform="translate(-323.59 -64.74)"/><path class="cls-10" d="M591.87,350.39s-10.88,15.16-15.3,25.26S570.28,400,570.28,400H675.67s-7.64-29.4-15.41-43S591.87,350.39,591.87,350.39Z" transform="translate(-323.59 -64.74)"/><path class="cls-11" d="M578,374.28s36.7,11,49.06,13.25c19.19,3.51,47.73,9,47.73,9s-4.36-17.94-8.32-25.86l-87.77.68Z" transform="translate(-323.59 -64.74)"/><path class="cls-12" d="M596.84,106.54s-18.57,11.93-23.5,21.79-2.84,18.75-1.13,24.44,7.77,15.44,8.33,18.85-.44,9.92.19,13.17c.57,2.94,11.5,18,23.25,23.5a40.43,40.43,0,0,0,13.32-5.5,36.69,36.69,0,0,1,2.84,17.62s-3.22,5.31-11.55,9.1-23.69,7.57-27.67,11.36a418.82,418.82,0,0,0,47.94,0c26.34-1.51,25.2-13.83,25.2-13.83s-10.23-4.73-12.88-9.66-5.12-18.19-4.17-21.6,15.34-28,17.43-42.25-1.33-34.87-10.8-44S615,99,596.84,106.54Z" transform="translate(-323.59 -64.74)"/><path class="cls-13" d="M576.57,162.57s11.24,2.82,16.54,9.05S605.49,197.4,606,200s-2,8.29-2,8.29,9-2.28,13.32-5.5a31,31,0,0,1,2.46,8.54s1.9-5.53,4.68-8.22c0,0,6.82,10.35,10.36,15.66s7.13,5.81,7.13,5.81l2.62-3.41s-6.3-3.49-8.66-13.81a100,100,0,0,1-2.61-15.91l-19.46-36.34L583,147.65l-10.8,5.12Z" transform="translate(-323.59 -64.74)"/><path class="cls-14" d="M663.2,169.51A30.85,30.85,0,0,1,652,183.08c-2.37,1.49-5.31,3.57-8,5.55l-.12.08-.09.06-.31.23c-2.81,2.06-5.29,4-6.47,4.88l-.7.55.51-.5,1.84-1.79-3.34,2-.56.33a15,15,0,0,1-3.13-.87h-.05l-1.26-.51c-.16-.06-.31-.14-.47-.21a60.27,60.27,0,0,1-6.27-3.32l.25-.27,1.22-1.34,1.74-1.89a40.9,40.9,0,0,1-5.2,1.4h0a7.17,7.17,0,0,1-2.34.11,9,9,0,0,1-4.53-2.94h0a43.17,43.17,0,0,0-.69-6.95c0-.21-.09-.42-.14-.63s-.14-.58-.22-.89c-1.37-5.11-3.26-8.92-5.63-10.72l-.1-.06a5.16,5.16,0,0,0-3.88-1h0l-.5.1a7.18,7.18,0,0,0-4,2.46l-.05.06a9.87,9.87,0,0,0-1.81,6.1l-.13-.25-.07-.13c-.73-1.41-3.42-6.5-5.82-10.58h0a28,28,0,0,0-3.63-5.32,11.43,11.43,0,0,0-4-1.32c-4.34-.91-10.56-1.5-11.32-1.57h-.08c-4.95-3.66-9.64-14.72-7.75-17.76a25.38,25.38,0,0,1,3.6-4.17c1.33-1.29,2.55-2.32,2.92-2.63l.12-.1c1.32-2.16,5.87-17.73,12.69-21.33s28.51-7,28.51-7c11.74,1.35,20,4.08,25.84,7.08,10.85,5.58,13.1,12.06,13.1,12.06,1.9,8.72,7.2,21.79,9.67,31.26A66,66,0,0,1,663.2,169.51Z" transform="translate(-323.59 -64.74)"/><path class="cls-15" d="M612.65,107.19,615,118.73l7.66,2.72,1.1,5.16,1.28.82,1.95,5.35s15,5.9,22.18,3.38,5.31-5.94,5.31-5.94L651.59,120s-1.64-4-4.54-5.81S612.65,107.19,612.65,107.19Z" transform="translate(-323.59 -64.74)"/><path class="cls-16" d="M565,141.54s3,12.68,4.65,14.45,18.06,4.29,22.86,3.28,24.13-15.15,26.27-18.69,7-20.41,7-20.41l-2.12-.88s-6.74,16.65-9.76,20.11-23.49,14.44-28.92,16.08-12.38.38-13.77-.5S566,141.84,566,141.84Z" transform="translate(-323.59 -64.74)"/><path class="cls-17" d="M663.2,169.51A30.85,30.85,0,0,1,652,183.08c-2.37,1.49-5.31,3.57-8,5.55l-.12.08-.09.06-.31.23c-1.7,1.3-5.51,4.57-5.51,4.57a5.53,5.53,0,0,1-1,.31l-.19.05a8.24,8.24,0,0,1-1.5.19,10,10,0,0,1-3.69-.54h-.05a10.41,10.41,0,0,1-1.26-.51c-.16-.06-.31-.14-.47-.21a50.39,50.39,0,0,1-6-3.59c-1.23-.84-2-1.45-2-1.45s1.34.08,3.27.11c4.37.09,11.74-.06,13.12-1.91,2-2.65,8.05-17.8,8.81-21.75s0-16.8,0-16.8-.38,9.76-1.23,12.79-7,16.2-12.44,20.84a33.6,33.6,0,0,1-11.72,6.34h0a3.43,3.43,0,0,1-2.34.11c-.82-.45-4.31-2.8-4.53-2.94h0a24.93,24.93,0,0,0-.69-6.95c0-.21-.09-.42-.14-.63s-.14-.58-.22-.89c-.89-3.51-2.48-8.51-5.63-10.72l-.1-.06a6,6,0,0,0-3.88-1h0a5.88,5.88,0,0,0-4.52,2.56l-.05.06a12.37,12.37,0,0,0-1.81,6.1l-.13-.25-.07-.13-5.82-10.58c.34.16,6.69,3.16,10.32,2.18s21.85-6.38,23.8-14.52,1.19-29.15,1.19-29.15-3,11.34-4.65,17-11,16.3-17.42,18.76a61,61,0,0,1-14.22,3.13l7.63-3s18.65-13.8,20-17.07S620.72,126,620.72,126s-3.8,12-7.74,15.17-24.1,14.4-28.08,14.27l-.94,0c-4-.26-10.51-1.42-11.32-1.57h-.08c-4.95-3.66-9.64-14.72-7.75-17.76,0,0,7.77,12.13,11.18,12.89s22.17-3.6,28.42-8,9.86-12.13,10.62-15,1.51-7.32,1.51-7.32a61.38,61.38,0,0,1-8.17,6c-5.13,3.22-22.14,11.74-25.18,11.74s-14.78-4.55-14.78-4.55l2.92-2.63.12-.1s2.08,3.49,3.6,3.77,6.25,3.32,11.93,0,17.81-8.8,19.63-11.64,6-14.13,6-14.13l25.84.74c10.85,5.58,13.1,12.06,13.1,12.06,1.9,8.72,7.2,21.79,9.67,31.26A66,66,0,0,1,663.2,169.51Z" transform="translate(-323.59 -64.74)"/><path class="cls-18" d="M656.39,90.56a52,52,0,0,0-7.07-.89,12,12,0,0,0-7.2-11.11c-2.76-1.32-6.6-1.46-10.44-1.06A53.09,53.09,0,0,0,617,81.21c-1.39.88-6.19,6.44-7.2,11.24S611.3,105,611.3,105s5.05,8.84,9.47,12.63,21,7.33,27.41,4.42,16.68-14.15,16.42-19S657.91,91.06,656.39,90.56Zm-12.61,28.16c.49-.36,8.25-6.09,10.21-11.11a6.4,6.4,0,0,0,.32-1.18,14,14,0,0,0-.81-6.24l0-.14a32.43,32.43,0,0,0-1.21-3.13c0-.11-.09-.22-.14-.32-.9-2-1.76-3.45-2-3.81a.35.35,0,0,0,0-.08s6.57,1.76,7.7,3.15.51,11-1.39,14.91a7.38,7.38,0,0,1-2,2.26C650.86,116,644.19,118.57,643.78,118.72Z" transform="translate(-323.59 -64.74)"/><path class="cls-19" d="M585,295.57s-3.54,9.85-6.32,20.46-7,17.43-8.43,18.44-9.63,6.07-11,6-9.76-11.75-11.37-16.67-3.13-43.3-3.88-49-4.36-19-4.36-19-10.91-4.41-13.64-8.71c-1.33-2.09-1.76-11.91-2.56-15.82-1.42-6.92-6.56-14.12-5.67-15.4,2-2.79,5.29,0,7.57,2.3s2.8,10,3.37,13c.82,2.59,4.65,2.62,5.79,1.67s5.33-13,6.84-21.55,5.31-23.51,7.2-23.89,2.77,6.17,2.14,12.56c-.36,3.76-3.13,12-3.84,15.58-.5,2.49,1.51,2.27,1.51,2.27s6.26-20.37,8.53-21.5,3.41,2.19,3.79,3.65-.95,4.31-.95,4.31-5.4,16-4.65,16.95c0,0,7.58-10.32,9.34-11.46s3.08-.92,3.27,1.53a8.49,8.49,0,0,1-1.33,4.72s-4.92,6.26-6.25,9.86c0,0,.2,5.22,2.46,4.16,1.83-.85,5.64-8,6.83-7.95,2.65.19,3.22,2.84,2.65,5.11s-3.22,5.5-4.93,7.39c0,0-8.15,12.32-10.23,15.16s-6.2,4-6.2,4a131.1,131.1,0,0,0,3.74,18.76c2.46,8.14,10,24.25,10,24.25s5-7.39,6.87-15C571.26,281.8,583.45,290.2,585,295.57Z" transform="translate(-323.59 -64.74)"/><path class="cls-20" d="M526,247.13s8.19,5.18,14.3,3.88c0,0,7.71,3.69,12.13,1.8l-.9,6.67s-3.53,3.41-10.65,1.12l-1.24-4.76S529.7,252.24,526,247.13Z" transform="translate(-323.59 -64.74)"/><path class="cls-21" d="M548.9,255.08s-25.79-38.84-32.6-52.67a5.73,5.73,0,0,1,3.4-3.51s26-8.63,32.23-8.91c0,0,18.19,36.86,24.64,50.32L575.24,243Z" transform="translate(-323.59 -64.74)"/><path class="cls-22" d="M668.93,368.77s-11.93,10.8-32.88,12.31c-16.89,1.23-59.87-8.71-61.38-12.12l4.54-5.14s11.75-20.44,13.65-22.53,12.69-11.17,14-12.69,3-17.05,2.46-20.65c0,0-7.58-3.22-10-7.58a36.15,36.15,0,0,1-3.46-9.29,21.08,21.08,0,0,0-4.69,6.83c-1.89,4.35-3,11.55-3,11.55s-18.57-3.41-23.68-16.48l2.84-2.27s2.49-7,4.4-14.26h0a85.46,85.46,0,0,0,1.84-8.47c1.33-8.91,4.74-25.58,6.25-27.29s32.71-13.26,32.71-13.26a4.8,4.8,0,0,1,1.78-2.84c1.51-1.14,2.79,2.27,2.79,2.27s14.47,1.52,19.76.38,7.72-6.06,7.72-6.06h0c.31-.16,4.45-2.17,4.91,3.42,0,0,12.36,5.3,16.4,9.6a47.34,47.34,0,0,1,1,10.37,80.69,80.69,0,0,1-2.31,19.38c-4.29,18-14.4,42.5-14.4,52.35s15.41,47.5,15.41,47.5,3.6,1,4,2.05S668.93,368.77,668.93,368.77Z" transform="translate(-323.59 -64.74)"/><path class="cls-23" d="M604,208.29a62.29,62.29,0,0,0,5-4.93c3.18-3.48,4.79-4.93,4.79-4.93l3.48,4.36S610.36,207.92,604,208.29Z" transform="translate(-323.59 -64.74)"/><path class="cls-24" d="M601.69,173.42a24.38,24.38,0,0,0,1.37,6.2c1.31,3.92,4.67,3.63,4.67,3.63v-2.64s-2,1.06-3.72-1.38a8.72,8.72,0,0,1-1.21-5.81Z" transform="translate(-323.59 -64.74)"/><path class="cls-25" d="M600.42,170.26s3.05.89,5.83,6.57,2.13,10,2.13,10,0-3.41-2.64-8.27-4.58-5.12-4.58-5.12S598.74,172.28,600.42,170.26Z" transform="translate(-323.59 -64.74)"/><path class="cls-26" d="M604.81,184.6a14.09,14.09,0,0,0,2.09,4.29,4,4,0,0,0,3.75,2L613,189S606.9,188.89,604.81,184.6Z" transform="translate(-323.59 -64.74)"/><path class="cls-27" d="M600.44,166.85s3,.51,6.44,5.81a69.24,69.24,0,0,1,5.77,11.75s.68-7.24-1-12-5.53-8.29-6.87-8.14S600.44,166.85,600.44,166.85Z" transform="translate(-323.59 -64.74)"/><path class="cls-28" d="M610.65,190.92s3.43-1.2,4-6.32a38,38,0,0,0,4.54,3S613.29,191.74,610.65,190.92Z" transform="translate(-323.59 -64.74)"/><path class="cls-29" d="M664.6,103.06c.26,4.8-10,16-16.42,19s-23-.63-27.41-4.42S611.3,105,611.3,105s-2.53-7.71-1.52-12.51c0,0,1.88,7.71,4,11.5s12.51,10.1,12.51,10.1-5.18-11.11-5.3-15.28.63-13.52,1.76-15.16,8-4.63,8.88-5c-.8.47-6.93,4-7.87,6.15s1.14,14.78,4.17,18.31,18.45,3.54,22.23,4a5.72,5.72,0,0,0,4.11-.68,6.4,6.4,0,0,1-.32,1.18c-2,5-9.72,10.75-10.21,11.11.41-.15,7.08-2.72,10.65-5.69a41,41,0,0,0,6-3.9A13.35,13.35,0,0,0,664.6,103.06Z" transform="translate(-323.59 -64.74)"/><path class="cls-30" d="M627.6,86.89c.12,2.66,7.95,11.06,13.13,13.3s12.78,0,12.78,0-1.91-5.45-3.43-7.48c0,0-8,3-11.11,2.77S627.6,86.89,627.6,86.89Z" transform="translate(-323.59 -64.74)"/><path class="cls-31" d="M631.26,77.3S639.47,81,642,84.75s2.66,9.75,2.66,9.75.76-6,0-9.25a33.81,33.81,0,0,0-2.54-6.69S640,76.8,631.26,77.3Z" transform="translate(-323.59 -64.74)"/><path class="cls-32" d="M665.87,234.18s-24-5.18-25.71-4.55-20,1.9-22,1.58-5.41-3.58-5.62-3.78c.21.12,3.4,2.09,4.8,2.33s15.35.5,19.52-.89,9.51-6.33,9.51-6.33l-1.79-1.37h0c.31-.16,4.45-2.17,4.91,3.42C649.47,224.58,661.83,229.88,665.87,234.18Z" transform="translate(-323.59 -64.74)"/><path class="cls-33" d="M668.93,368.77s-9.2,10.42-32.88,12.31c-16.88,1.35-59.87-8.71-61.38-12.12l4.54-5.14s8.34,2.44,15.16,0c0,0,9.67-20.44,11.37-22.34s7.58-7.76,9.29-9.66-1.46-21.35-1.46-21.35-2-3.65-4.23-2.52c0,0-7.58-3.22-10-7.58a36.15,36.15,0,0,1-3.46-9.29,21.08,21.08,0,0,0-4.69,6.83c-1.89,4.35-3,11.55-3,11.55s-18.57-3.41-23.68-16.48l2.84-2.27s2.49-7,4.4-14.26h0L569,292.92c2.08,5.81,15,9.26,15,9.26,8.85-5.05,20.56-27.48,20.56-27.48a13.21,13.21,0,0,1-.17,4.41c-.4,1.2-1.82,4.71-1.82,4.71l11-1.64-8,5.05s10.57,15.78,11.45,19.7,5,18.69,8.61,20.42c5.88,2.83,12.28-1.72,15.82-6.9s21.6-53.56,21.6-53.56-15.41,19.71-18.55,21.73c-2.93,1.89-13,5.56-14.29,6,1-.42,7.64-3.19,9.91-4.24,2.45-1.14,9.92-8.72,14.34-15.28s12.4-30.57,12.4-30.57h0a80.69,80.69,0,0,1-2.31,19.38c-4.29,18-14.4,42.5-14.4,52.35s15.41,47.5,15.41,47.5a44.38,44.38,0,0,1-21.48,12.13c-9.5,2.33-28.16,1-28.16,1s14.49,3.07,27.91.88c17-2.78,25.71-12,25.71-12C670,366.87,668.93,368.77,668.93,368.77Z" transform="translate(-323.59 -64.74)"/><polygon class="cls-34" points="272.25 226.34 279.53 215.14 278.99 219.08 289.98 217.44 273.14 229.59 272.25 226.34"/><path class="cls-35" d="M614.2,231.21c-1.11,1.37-22,13.64-23.32,14.46l-.68.89s-11,31.83-12.12,33.32-9,11.65-9,11.65c-1.64-.32-1.76-.82-1.76-.82,3.6-8.14,12.5-50,12.5-50a22.66,22.66,0,0,1,3.41-1.79c8.61-3.9,29.31-11.46,29.31-11.46S615.36,229.8,614.2,231.21Z" transform="translate(-323.59 -64.74)"/><path class="cls-36" d="M614.2,231.21c-1.11,1.37-21.25,13.67-22.59,14.49l-.34.21a61.81,61.81,0,0,0-10.35-5l2.27-2c8.61-3.9,29.31-11.46,29.31-11.46S615.36,229.8,614.2,231.21Z" transform="translate(-323.59 -64.74)"/><path class="cls-37" d="M595.84,291.08s7.44-12.32,7.77-14.68-3.83-22-7.77-26.43-14-8.54-16.06-9.29c0,0,12.45,3.86,17.12,8.91s7.4,22.74,7.81,26.15-2.13,8.08-2.13,8.08Z" transform="translate(-323.59 -64.74)"/><path class="cls-38" d="M519.7,198.9s16.24,34.21,31,53l25.91-11.55L551.93,190S539,192,519.7,198.9Z" transform="translate(-323.59 -64.74)"/><polygon class="cls-39" points="225.31 190.34 227.07 187.12 252.97 175.56 251.65 178.22 225.31 190.34"/><path class="cls-40" d="M523.32,203.61c-.93,1.62,24.45,43.58,25.58,44.08s24.38-8.84,24.89-9.47-19.71-43.59-20.85-44.09S524.1,202.27,523.32,203.61Z" transform="translate(-323.59 -64.74)"/><path class="cls-41" d="M612.79,226.47a24,24,0,0,0,4.27,2.4c2.39,1,15.48.59,18.94-.31s4.16-2.09,4.16-2.09a21.13,21.13,0,0,1-7.29,1.5c-4,.05-15-.15-15.92-.54s-1.32-2.5-1.32-2.5S613.87,223.85,612.79,226.47Z" transform="translate(-323.59 -64.74)"/><path class="cls-23" d="M564.39,296.77s9.41,12.31,9.41,32.45a106.19,106.19,0,0,0,7.36-21.83s-8.13-4.05-10.59-6.2a38.46,38.46,0,0,1-5.14-6.09Z" transform="translate(-323.59 -64.74)"/><path class="cls-23" d="M553.59,316.48s.81-6.26,1.66-7.59,7.86-7.36,9.14-12.12L557.9,282s1,11.94.83,16.78-5.85,9.76-5.66,10.7S553.59,316.48,553.59,316.48Z" transform="translate(-323.59 -64.74)"/><path class="cls-42" d="M529.11,232.26s4.26,3.69,6.4,5.83a73.52,73.52,0,0,1,5.31,6.45l1.44.42-7.78-12.08A10.49,10.49,0,0,1,529.11,232.26Z" transform="translate(-323.59 -64.74)"/><path class="cls-43" d="M568,152.29s3.11,3.7,3.68,3.89,13.2,1.39,17.75.88,19.66-9,19.66-9-9.68,8-11.07,8.72a29.79,29.79,0,0,1-8.53,2.69c-3.54.47-19-2.31-20.15-3.32S568,152.29,568,152.29Z" transform="translate(-323.59 -64.74)"/><path class="cls-44" d="M571.45,129.19s8.9-10,13.58-14.13,23.41-13.49,23.41-13.49-19.12,3.63-24.3,6.29S574.3,121.72,571.45,129.19Z" transform="translate(-323.59 -64.74)"/><path class="cls-45" d="M565.27,136.79s7.38,11.38,11.3,12.26,25.67-4.71,30-9.79,7.58-9.45,8.42-13.21c0,0-4.39,10.74-14.59,13.35-6.81,1.74-19.2,5.22-24.51,4.46S565.27,136.79,565.27,136.79Z" transform="translate(-323.59 -64.74)"/><path class="cls-46" d="M617,81.21s-5.92,5.83-6.5,10.55C610.2,94,613.34,103,613.82,104s7.63,6.87,7.63,6.87S614.85,96.49,615,92s3.25-9.22,6.14-10.74,5.8-3,5.8-3S620.14,79.69,617,81.21Z" transform="translate(-323.59 -64.74)"/><path class="cls-47" d="M594.12,340.05s4.55.35,11.62,1.43l9.67-10.79s-2.59-4.93-8.53-2.09Z" transform="translate(-323.59 -64.74)"/><path class="cls-48" d="M621.17,187.49s4.28,14,6.55,17.38,8.67,7.58,9.36,10,4.85,9.66,4.85,9.66-3-10.8-4-13.07-8.33-6.26-9.85-8.91-3.75-13.94-3.75-13.94l2.43-2.64S621.82,185.83,621.17,187.49Z" transform="translate(-323.59 -64.74)"/><path class="cls-49" d="M640.16,191.45s3.35,10.2,3.6,12.48-.69,7.4-.69,7.4,2.65-6.84,2.65-8.54-2.61-4-3.62-6.63,0-6.17,0-6.17Z" transform="translate(-323.59 -64.74)"/><path class="cls-50" d="M620.77,117.59a39.05,39.05,0,0,0,14,7.18c10.38,2.78,17.49-2.15,17.49-2.15l-.7-2.63a25,25,0,0,1-9,3C637.66,123.56,626.71,120.87,620.77,117.59Z" transform="translate(-323.59 -64.74)"/><path class="cls-51" d="M612.2,171.62s11.76,6.9,14.15,6.88,6.14-5.69,9.33-11.41c3.1-5.54,2.45-33,2.45-33s2.77,27.2,2,29.24-2.74,15-7.46,18.19-10,6-13.51,6l-4.54-3A83.17,83.17,0,0,0,612.2,171.62Z" transform="translate(-323.59 -64.74)"/><path class="cls-52" d="M623.55,189.53s11.57-.15,15.17-2.1,15.46-7.69,19.63-11.48,4.78-12.52,4.78-12.52l.07,6.08s-4.4,8.86-9,12-11.83,7.83-14,9.95c0,0-3.22,2.93-5.43,3S623.55,189.53,623.55,189.53Z" transform="translate(-323.59 -64.74)"/><path class="cls-53" d="M629.82,192.85s2.45,7.67,3.78,10.13,4.32,8,5.49,11.9,2.84,16.33,2.84,16.33.38-10.8,0-16.48c0,0-4.78-9.1-4.85-14s3.08-9.26,3.08-9.26l-6,1.68Z" transform="translate(-323.59 -64.74)"/><path class="cls-54" d="M522.21,207.71s4.27,8,5.88,10.52l-1,.6A31.85,31.85,0,0,1,521,208.6Z" transform="translate(-323.59 -64.74)"/><path class="cls-55" d="M527.71,219.46l.76-.57c2.31,4,2.23,3.85,3.22,5.5l-.76.57A17.06,17.06,0,0,1,527.71,219.46Z" transform="translate(-323.59 -64.74)"/><path class="cls-56" d="M527.71,219.46l.48-.35s1.74,4,3.31,5.42l-.57.43A13.11,13.11,0,0,1,527.71,219.46Z" transform="translate(-323.59 -64.74)"/><path class="cls-56" d="M521,208.6l.7-.52a45.85,45.85,0,0,0,6,10.39l-.57.36A33.27,33.27,0,0,1,521,208.6Z" transform="translate(-323.59 -64.74)"/><path class="cls-57" d="M529.7,197.69l.44.8s8.72-2.94,14.21-4.13l-.37-.83A113.91,113.91,0,0,0,529.7,197.69Z" transform="translate(-323.59 -64.74)"/><path class="cls-58" d="M530.14,198.49s11.7-3,14.21-4.13A90.56,90.56,0,0,0,530.14,198.49Z" transform="translate(-323.59 -64.74)"/><polygon class="cls-59" points="237.56 179.65 238.19 180.6 242.61 178.59 242.25 177.84 237.56 179.65"/><path class="cls-60" d="M627.6,86.89a37.79,37.79,0,0,0,10,11.47c6.29,4.48,14.26-2.3,14.26-2.3l-1.79-3.35a23.41,23.41,0,0,1-10.35,2.78C634.2,95.49,627.6,86.89,627.6,86.89Z" transform="translate(-323.59 -64.74)"/><path class="cls-61" d="M656.72,370.76s4.79-3.86,4.21-7.23c-.93-5.49-6-22.9-8.71-32a90.31,90.31,0,0,1-3.6-16.68c0-.75,9.82-29.92,9.82-29.92s-7.88,23.6-8.21,30.59,10.4,38.13,15.15,47.67A36.19,36.19,0,0,1,656.72,370.76Z" transform="translate(-323.59 -64.74)"/><path class="cls-62" d="M609.34,308s-.78,18-2.13,19.77-11.73,9.68-14.35,13.57-11.94,19.57-11.94,19.57,12.39-19.5,14.92-20.42,14.41-10.2,14.92-13,.87-19.21.87-19.21S610.33,307.32,609.34,308Z" transform="translate(-323.59 -64.74)"/><path class="cls-63" d="M578,374.28a75.55,75.55,0,0,0-3.06,14.51c-.76,7.58,0,11.21,0,11.21h-4.61S571.1,383.77,578,374.28Z" transform="translate(-323.59 -64.74)"/><path class="cls-23" d="M550.58,329.22s4.5,3.1,6.14,5.38a6.64,6.64,0,0,1,1.16,4.78A66.47,66.47,0,0,1,550.58,329.22Z" transform="translate(-323.59 -64.74)"/><path class="cls-64" d="M555.91,333.64a34.72,34.72,0,0,0,2,4.75c.67.95,3.58-.45,3.58-.45S557.25,335.45,555.91,333.64Z" transform="translate(-323.59 -64.74)"/><path class="cls-65" d="M599,332.71a12.4,12.4,0,0,0,2.27-1.39c1.14-.89,11.26,2.27,12.26,3.28s19.45,4.12,33,6.88c0,0-10.76-.88-20.9-2.1s-14-3.2-14-3.2A20.52,20.52,0,0,0,599,332.71Z" transform="translate(-323.59 -64.74)"/><path class="cls-10" d="M599,335v-2.3a16.86,16.86,0,0,1,10.65,2.3c5.71,3.25,29.6,5.82,29.6,5.82s-18.15-.68-25.35-2.11C608.18,337.57,604.72,334.85,599,335Z" transform="translate(-323.59 -64.74)"/><path class="cls-66" d="M575.5,368a10.65,10.65,0,0,0,4.47,2c2.83.56,13.13,3.31,19.57,4.31S616,376.92,616,376.92s-11.83-2.79-20.13-5.69-17.28-6.67-17.28-6.67A36.22,36.22,0,0,0,575.5,368Z" transform="translate(-323.59 -64.74)"/><path class="cls-67" d="M642.1,190s9.17-6.74,12.58-9.81c2.77-2.5,6.13-10.8,6.76-13.83s-3.14-24.73-5.18-30.87c0,0,8.71,18.88,6.94,34,0,0-1.18,6.13-11,13.89A72.77,72.77,0,0,1,642.1,190Z" transform="translate(-323.59 -64.74)"/><path class="cls-68" d="M641.93,214.73a49.33,49.33,0,0,0-1,5.11c-.31,2.32,1,11.37,1,11.37S642.8,218.23,641.93,214.73Z" transform="translate(-323.59 -64.74)"/><path class="cls-69" d="M647.66,220.93s.9,1.09,0,4c0,0,14.69,5.61,18.21,9.27,0,0-4-5.24-16.4-9.6A3.42,3.42,0,0,0,647.66,220.93Z" transform="translate(-323.59 -64.74)"/><path class="cls-70" d="M542.68,228.14a87.32,87.32,0,0,1,18.89-8.58l.56,1.68a150.67,150.67,0,0,0-18.94,8.62Z" transform="translate(-323.59 -64.74)"/><path class="cls-70" d="M548.13,230l.51,1.11s7.65-2.65,13.18-4.07l-.42-1.23S554.11,227.8,548.13,230Z" transform="translate(-323.59 -64.74)"/><g class="cls-71"><path class="cls-72" d="M530.39,203.78c3.5-1.21,11.21-3.81,17.56-5.49a1.87,1.87,0,0,1,2.08.81c1.67,2.84,6,10.29,8.42,15.13a1.62,1.62,0,0,1-1,2.27l-16,5.23a1.88,1.88,0,0,1-2.1-.65c-1.9-2.68-6.86-9.75-9.88-15A1.63,1.63,0,0,1,530.39,203.78Z" transform="translate(-323.59 -64.74)"/><path class="cls-73" d="M540.81,221.93a1.94,1.94,0,0,1-1.59-.8c-2-2.77-6.88-9.78-9.88-14.95a1.67,1.67,0,0,1-.11-1.46,1.82,1.82,0,0,1,1.12-1l0,.09,0-.09c3.12-1.08,11.09-3.78,17.57-5.49a2,2,0,0,1,2.21.85c1.73,2.95,6,10.34,8.42,15.14a1.61,1.61,0,0,1,0,1.42,1.89,1.89,0,0,1-1.13,1l-16,5.22A2.05,2.05,0,0,1,540.81,221.93Zm7.64-23.6a2,2,0,0,0-.47.06c-6.47,1.71-14.43,4.41-17.55,5.49a1.63,1.63,0,0,0-1,.91,1.44,1.44,0,0,0,.09,1.29c3,5.17,7.9,12.17,9.87,14.94a1.76,1.76,0,0,0,2,.61l16-5.22a1.68,1.68,0,0,0,1-.88,1.47,1.47,0,0,0,0-1.26c-2.41-4.79-6.69-12.17-8.42-15.13A1.7,1.7,0,0,0,548.45,198.33Z" transform="translate(-323.59 -64.74)"/></g><path class="cls-74" d="M551.77,241.13s0-.87.63-.76.63,1.58.17,2.29a3.33,3.33,0,0,1-1.42-.33c-.63-.35-.6-1-.28-1.22S551.77,241.13,551.77,241.13Z" transform="translate(-323.59 -64.74)"/><path class="cls-75" d="M557.24,202.13l-18.83,29.08s7.29,13,10.49,16.48l16.48-28.58Z" transform="translate(-323.59 -64.74)"/><path class="cls-76" d="M430.52,375.53s4.23,7,6.89,12.7,3.79,23.11,3.79,23.11S398.83,422,378,422s-25.89-6.51-25.89-6.51-1.05-27.34,1-33.91a33.31,33.31,0,0,1,6.82-11.62S427.79,370.81,430.52,375.53Z" transform="translate(-323.59 -64.74)"/><path class="cls-77" d="M433.87,381.68s-41.77,7-53.21,12-28.75,16.67-28.75,16.67-.3-20.54.41-24.7a44.09,44.09,0,0,1,2.15-7.8L429,373.83A26.23,26.23,0,0,1,433.87,381.68Z" transform="translate(-323.59 -64.74)"/><path class="cls-78" d="M324.51,235.94s.76,66.39,5.3,86.19c0,0,12.51,26.65,27.29,33.83s5.68-39.68,5.68-39.68l-19.32-64.54Z" transform="translate(-323.59 -64.74)"/><path class="cls-79" d="M377.56,75.73c12.83-4.13,47.5,2.11,54.06,13.14s3.29,22.66,2.78,26.95-3.53,16.89-3.28,19.69,1.77,4.67,1.77,7-9.86,28.84-21.73,36.81a61.48,61.48,0,0,1-21.47-6.63s-2.78,16.69-3,26.64c0,0-20,3.69-26,0,0,0,9.1-25.5,9.6-31.65s-14.9-33.94-16.92-40.51S355.33,82.87,377.56,75.73Z" transform="translate(-323.59 -64.74)"/><path class="cls-80" d="M434.58,114.59s-10.16,16.77-12.93,21.19-12.26,18.57-14.15,24.13-3.29,10.23-3.16,12.12,4.42,5.9,6.82,7.31c0,0-13.18-1.63-21.47-6.63l-.74,4.76s-13.45,3.57-22.08,3.3c0,0,3.36-10.38,3.87-15.69l37.14-52.54,27.66-5Z" transform="translate(-323.59 -64.74)"/><path class="cls-81" d="M446.55,96.11c-3.14,9.73-11.45,15.3-11.45,15.3l.44-3.82c-3.41,3.52-10.36,14.92-12.12,19.85S419,137.71,419,137.71s-.38-8-2.4-10.65-7.2-3.16-8.47-2.65-4.55,3.28-7.07,8.46,0,17,0,17a29.22,29.22,0,0,1-10.86,12.89A97.82,97.82,0,0,1,372,171.67s-4.3-15.56-9.73-23.26c-4.39-6.23-10.48-18.57-10.48-18.57l-2.4-.38c-1-11,5.68-28.93,5.68-28.93-1.14-1.13-5.43-6.57-4.55-9.72S369.86,72,380.09,68.07s27.92-3.79,29.19-2.4a27.89,27.89,0,0,1,3,5.29,7.2,7.2,0,0,0-2.26-1.5c-1.14-.38-5.69,0-5.69,0s1.14.76,8.47,2.53,20.08,1.76,20.08,1.76c7.79,5.87,11.87,16.68,13.18,20.75C446.39,95.51,446.55,96.11,446.55,96.11Z" transform="translate(-323.59 -64.74)"/><path class="cls-82" d="M446.55,96.11c-3.14,9.73-11.45,15.3-11.45,15.3l.44-3.82c-3.41,3.52-10.36,14.92-12.12,19.85S419,137.71,419,137.71s-.38-8-2.4-10.65-7.2-3.16-8.47-2.65-4.55,3.28-7.07,8.46,0,17,0,17a29.22,29.22,0,0,1-10.86,12.89A97.82,97.82,0,0,1,372,171.67s-4.3-15.56-9.73-23.26c-4.39-6.23-10.48-18.57-10.48-18.57l3-14,1,14c.06,7.94,13.55,25.07,13.55,25.07s5.15,2.71,12.08-4.93a94.34,94.34,0,0,0,12-17.58v3.16c4.93-5,16.8-14.42,16.8-14.42,6.19.46,11.43,6.55,11.43,6.55,5.5-7.77,8.9-28.36,8.9-28.36,6.06-1.52,15.46-4.77,15.46-4.77C446.39,95.51,446.55,96.11,446.55,96.11Z" transform="translate(-323.59 -64.74)"/><path class="cls-83" d="M484.17,263.67s-1-14.64-2.52-22.51c0,0-3.86.72-8.4-3.44a105.85,105.85,0,0,1-11.94-13.45c-1.71-2.47-7.58-6.63-9.1-8.53s-2.27-4.55-1.7-5.5,3.22-1,4.36.91,4.54,6.22,6.06,7.2,2.65-1.22,1.89-2.49-5.49-8.25-7.39-12.14-1.89-6.81-1.32-8.76,2.18-2,3.55-1,6,10,9.59,13.83-4.43-19.83-3.86-25.45S471,168.5,471,168.5s6.25,5.85,9.1,13.18,4.35,17.66,6.25,22.54,4.17,4.89,4.17,4.89,2.46-2.21,2.27-4.24a27.49,27.49,0,0,1-2.84-9.91c-.38-5.37,4.74-9.63,7.77-8.63,0,0-1.71,11.6,0,20.31s4.17,12.69,4.17,15.72-8.34,13.08-8.53,15.74,4.74,23.47,4.74,23.47S487.14,265,484.17,263.67Z" transform="translate(-323.59 -64.74)"/><path class="cls-10" d="M451.87,232.6s19.16,3.16,30.59,4.48c0,0,11.64-39.53,18.54-70.8l-1.82-2.84s-18.55-2.35-34-2l-14.72,68Z" transform="translate(-323.59 -64.74)"/><path class="cls-84" d="M508.4,302.42a38.82,38.82,0,0,1-1.83,6.79h0c-2.37,7-6.55,16.76-9.76,17.54-4.68,1.14-20.72-10.35-25.27-14.65s-14.65-18.95-18.94-22.48-21.48-9.19-21.48-9.19a139.27,139.27,0,0,0-6.31,29,109.86,109.86,0,0,0-.31,12.69c.35,15.49,2.58,33.87,2.58,33.87s-33.1,12-71,4.91a316.3,316.3,0,0,1-22.74-65.08,383,383,0,0,1-9.09-69.15c0-2,10.14-12.25,18.69-19a53.34,53.34,0,0,1,7.33-5s4.33-10.54,7.92-16.38a.28.28,0,0,0,0-.07,74.47,74.47,0,0,0,17.43,1.17c10.61-.38,17.81-1.17,17.81-1.17s7.39,12.35,9.09,17.47c0,0,1.71,1.3,4.3,3.18,5.17,3.78,13.82,9.89,19.12,12.54a20.28,20.28,0,0,0,2.16,1c1.27.46,2.63.89,4,1.29,6,1.75,12.5,3,13.42,4.06,1.14,1.27,8.72,14.24,11,20s10.43,21.85,15,28.67a30.27,30.27,0,0,0,9.24,8.32h0a40.09,40.09,0,0,0,4.67,2.48s0-.33-.07-.9a4.4,4.4,0,0,0,0-.48l0-.44c-.3-4.21-1.09-14.73-1.79-20.47,0-.19-.05-.38-.07-.56,0,0,0,0,0,0,0-.23,0-.43-.08-.63s-.05-.38-.08-.55a3.26,3.26,0,0,0-.05-.33.77.77,0,0,0,0-.15.44.44,0,0,0,0-.13.18.18,0,0,1,0,0c-.95-5.49-1.43-7.1-1.43-7.1s-3-4.26-3-5.12,5.69-5.49,9.67-6.25a13.47,13.47,0,0,1,6.25,0s3.63,21.6,7.88,34.29S508.58,299.29,508.4,302.42Z" transform="translate(-323.59 -64.74)"/><path class="cls-23" d="M391.2,169.11s11.88,8.07,20,10.23c0,0-13.57-1.44-21.47-6.63A33.59,33.59,0,0,1,391.2,169.11Z" transform="translate(-323.59 -64.74)"/><path class="cls-85" d="M415,128.83a10.92,10.92,0,0,0-6.82,6.07,20.47,20.47,0,0,0-.88,15.78s-.64-7.4,1.89-13A33.54,33.54,0,0,1,415,128.83Z" transform="translate(-323.59 -64.74)"/><path class="cls-86" d="M410.53,133.76a14.54,14.54,0,0,1,0,8.46c-1.07,3.72-3.26,4.06-3.26,4.06s1.51,1.08,3.91-1c3.16-2.78,1.9-14.14,1.9-14.14Z" transform="translate(-323.59 -64.74)"/><path class="cls-87" d="M415.77,126.23s-6.25,3.61-8.52,6.14-4.55,12.38-4.55,12.38-2-6.7-1.5-10.61,5.16-8.47,6.93-9.73C408.13,124.41,414.45,124.57,415.77,126.23Z" transform="translate(-323.59 -64.74)"/><path class="cls-88" d="M405.48,150.68s2.86,2.2,4.8,1.14c0,0-.76,3-3,3S405.48,150.68,405.48,150.68Z" transform="translate(-323.59 -64.74)"/><path class="cls-23" d="M405.43,155.86a15.91,15.91,0,0,1-4.37-5.93s-3.8,6.74-6.28,9.32C394.78,159.25,400.93,157,405.43,155.86Z" transform="translate(-323.59 -64.74)"/><path class="cls-89" d="M350.53,90.81s7.7-2.4,12.63-4.48,21.79-2.09,25.2,0c0,0-10.42.64-15.54,1.46s-5.95,3-5.95,3S377.18,93,379.65,94.5c0,0-16.11,4.9-18.76,5.47a32.56,32.56,0,0,1-5.81.57S349.46,95.3,350.53,90.81Z" transform="translate(-323.59 -64.74)"/><path class="cls-90" d="M446.55,96.11s-8.61-12.3-15.68-14.23c0,0-11.48,2.58-29.74,2.88s-37-.77-50.6,6c0,0,14.48-15.41,28.21-19a82.82,82.82,0,0,1,25.6-2.4s11.37,5.68,28.55,4.29C432.89,73.75,444,82.47,446.55,96.11Z" transform="translate(-323.59 -64.74)"/><path class="cls-91" d="M380.66,102.47s-4.53,13.39-2.22,32.06l4.68-9.36S380.66,108.8,380.66,102.47Z" transform="translate(-323.59 -64.74)"/><path class="cls-92" d="M406.87,206.79,399.18,214,343,212.89v-5.26a53.34,53.34,0,0,1,7.33-5s4.33-10.54,7.92-16.38c-.52,1.08-6.46,13.68-.59,16.4,6.12,2.83,30.56,3.65,34.12,1.06s1.75-17.53,1.75-17.53,7.39,12.35,9.09,17.47C402.57,203.61,404.28,204.91,406.87,206.79Z" transform="translate(-323.59 -64.74)"/><path class="cls-93" d="M506.57,309.21h0c-2.37,7-6.55,16.76-9.76,17.54-4.68,1.14-20.72-10.35-25.27-14.65s-14.65-18.95-18.94-22.48-21.48-9.19-21.48-9.19a139.27,139.27,0,0,0-6.31,29,109.86,109.86,0,0,0-.31,12.69l-10.43-7.7-8.59-80.85,11.75-13,8.76-1.2a20.28,20.28,0,0,0,2.16,1c1.27.46,2.63.89,4,1.29a34,34,0,0,0-5.84,12c-1.51,6.57,2.92,21.73,2.92,21.73l14.64,14.28,16.29,7.24s-24.48-2-25.11-2.16c.71.41,19.71,11.35,21.07,12.6s33.22,26.39,40.8,27c0,0-2.78-18.32-4.17-22.49s-7.3-6.69-7.3-6.69,0-.33-.07-.9a4.4,4.4,0,0,0,0-.48l0-.44c-.34-4.3-1.19-15.13-1.79-20.47,0-.19-.05-.38-.07-.56,0,0,0,0,0,0,0-.23,0-.43-.08-.63s-.05-.38-.08-.55a2.88,2.88,0,0,0-.05-.33.77.77,0,0,0,0-.15c.43,2,4,18.87,4.61,21s6.31,10,9.47,14.78S506.57,309.21,506.57,309.21Z" transform="translate(-323.59 -64.74)"/><path class="cls-94" d="M431.12,280.44l-13.32,6.48,3.3,7.78,4.71,7.56S427.8,289.48,431.12,280.44Z" transform="translate(-323.59 -64.74)"/><path class="cls-95" d="M433.65,373.5a121.69,121.69,0,0,1-39.39,6.82c-21.7,0-40.19-1.26-41.41-3.28s3.22-7.48,3.71-8.09a.09.09,0,0,0,0-.05h0l-1.2-3c-4.42-11-19.59-49.38-22.17-62.63-3-15.54-10-76-9.6-77.68a4.3,4.3,0,0,1,1.39-2.4c4.8-6.32,22.1-20.34,22.1-20.34s.38-1.64,1.14-1.86,3.22-1.22,3.22-1.22l-1.2,2.82s.5,1.77,5.43,2.66,26.27,2.4,34,1S401.51,201,401.51,201s2.71-1.05,3.34,0,0,3,0,3,7.74,6.89,12,8.84,13.26,2.9,13.26,2.9a23.06,23.06,0,0,1,2.05,5.85s-7.1,2.36-8.36,4.64-10.87,39.15-7.47,55.31a54.6,54.6,0,0,0,9.49,20.73l.69-4.24,3.85,4.74a132.67,132.67,0,0,0-2.27,16.68c-.76,9.85,4.07,45.91,4.07,45.91C434.71,367.82,433.65,373.5,433.65,373.5Z" transform="translate(-323.59 -64.74)"/><path class="cls-96" d="M433.65,373.5a121.69,121.69,0,0,1-39.39,6.82c-21.7,0-40.19-1.26-41.41-3.28s3.22-7.48,3.71-8.09c-.24.44-1.69,3.16-1.23,4.55s32.59,4.55,47.75,3c0,0-27.85-2.69-43.39-8.7a10.32,10.32,0,0,1-5.85-5.83c-5.67-14.28-18.28-46.75-20.61-58.73-3-15.54-10-76-9.6-77.68a4.3,4.3,0,0,1,1.39-2.4c4.8-6.32,22.1-20.34,22.1-20.34s.38-1.64,1.14-1.86c0,0,.05,4,1,5.27s16.4,5.22,25.62,4.88c8.93-.32,28.66-6.73,29.88-7.13-1.06.49-15.75,7.17-19.39,8.1s-21.73,4-30.32,3.62-28.67,7.5-28.67,7.5-1.31,30.76,2,46c2.86,13.27,11.54,39,15.58,49.16s13.29,42.12,16.82,44.68,47.92,8.39,55-4,5.5-55.35,5.5-55.35-7.58-16.66-9.1-30.69,8.85-54.69,17.94-57.35a23.06,23.06,0,0,1,2.05,5.85s-7.1,2.36-8.36,4.64-10.87,39.15-7.47,55.31a54.6,54.6,0,0,0,9.49,20.73l.69-4.24,3.85,4.74a132.67,132.67,0,0,0-2.27,16.68c-.76,9.85,4.07,45.91,4.07,45.91C434.71,367.82,433.65,373.5,433.65,373.5Z" transform="translate(-323.59 -64.74)"/><path class="cls-97" d="M393.23,209.11s21.34,14.7,29,16.79c0,0,3.42-8.53,7.84-10.17,0,0-9.3-1-12.31-2.5s-13-9.22-13-9.22S394.89,208.42,393.23,209.11Z" transform="translate(-323.59 -64.74)"/><path class="cls-98" d="M499.18,163.44s-15.33,64-17.79,69.35l-30.91-3.41,14.72-68S487.33,161.26,499.18,163.44Z" transform="translate(-323.59 -64.74)"/><path class="cls-99" d="M465.48,166.1c-2,2-13.65,58.68-13.27,60.12s28,4.48,29.37,3.16,15-59.31,15-61.58C496.55,166.35,466.47,165.1,465.48,166.1Z" transform="translate(-323.59 -64.74)"/><path class="cls-100" d="M493.33,238.1a17.23,17.23,0,0,1-7.59-12.45c-1.13-8.78,1.43-12.75,2.28-14s4.55-4.39,4.74-6.79a17.43,17.43,0,0,1-2.65-8.55c-.19-5,2.23-8.75,4.26-9.67a4.25,4.25,0,0,1,3.32-.32s-1.54,9.93-.57,16.08,4.92,19,4.74,20S493.33,238.1,493.33,238.1Z" transform="translate(-323.59 -64.74)"/><path class="cls-101" d="M372.51,355.8s22.14-2.34,29.13-8.15S413.94,326,413.94,326s-10.84,12.88-19.31,18.19S372.51,355.8,372.51,355.8Z" transform="translate(-323.59 -64.74)"/><path class="cls-102" d="M445.58,225.64s-11.69,1.34-14.46,7.15c0,0-5.43,18.67,2.75,25s40.51,19.88,40.51,19.88a187.56,187.56,0,0,1-14-22.53C454.83,244.16,445.58,225.64,445.58,225.64Z" transform="translate(-323.59 -64.74)"/><path class="cls-103" d="M481.77,253.25s6.26-7.31,13.55-7.63a24.13,24.13,0,0,0-12.26,13.93Z" transform="translate(-323.59 -64.74)"/><path class="cls-104" d="M474.07,163.32s8.41.14,13.52.67l-.58.62-12.79-.76Z" transform="translate(-323.59 -64.74)"/><path class="cls-105" d="M479.58,241.09s4.28-4.13,4.75-4.61,1.41-10.83,1.41-10.83l-3.28,11.43L471,235.56A16.88,16.88,0,0,0,479.58,241.09Z" transform="translate(-323.59 -64.74)"/><path class="cls-106" d="M495.57,180.78l2.55-9.75h.41A24.08,24.08,0,0,1,496,181Z" transform="translate(-323.59 -64.74)"/><path class="cls-107" d="M416.33,87.32s9.38,3.51,11.4,7.18-1,16-1.51,20.29-3.84,10.67-3.84,10.67,1.46-13.84,0-21.7S416.33,87.32,416.33,87.32Z" transform="translate(-323.59 -64.74)"/><path class="cls-108" d="M326.9,249.89s4.93,13.64,8.34,17.8,16.42,14.78,27.91,17.06c0,0-14.36-7.75-23.41-16.59A60,60,0,0,1,326.9,249.89Z" transform="translate(-323.59 -64.74)"/><path class="cls-109" d="M326.9,249.89s10.79,12.37,21.19,21a160.38,160.38,0,0,1,15.06,13.83,159.27,159.27,0,0,1-18.12-12c-8.65-6.73-11.52-11.52-13.13-14S326.9,249.89,326.9,249.89Z" transform="translate(-323.59 -64.74)"/><path class="cls-110" d="M431.12,280.44a42.54,42.54,0,0,1-4.63-4.91c-2.65-3.22,1-27.2,2.31-34.44s4.76-10.78,7.54-12.43,9.24-3,9.24-3l-1-.64s-8.36,2.78-10.68,4-6,8.72-6.88,13.39-2.9,30.44-2,33.35,5.55,6.48,5.55,6.48Z" transform="translate(-323.59 -64.74)"/><path class="cls-111" d="M485.46,285.08a15.47,15.47,0,0,1,6.94,5.85c2.58,4.21,4.32,21.95,4.32,21.95s.07-13.95-1.12-18.22S485,279.41,485,279.41Z" transform="translate(-323.59 -64.74)"/><path class="cls-112" d="M443.88,269.55a62.85,62.85,0,0,1-10.57,0,95.14,95.14,0,0,1-13.9-2.23s12.69,7,15.65,7.31,25.11,2.16,25.11,2.16S446.4,270.47,443.88,269.55Z" transform="translate(-323.59 -64.74)"/><path class="cls-113" d="M431.12,280.44s15.45,4.07,21.14,6.17a31.6,31.6,0,0,1,10.13,6.63l-7-1.89.68,1.89a30.54,30.54,0,0,0-4.19-4.15C450.27,288,431.12,280.44,431.12,280.44Z" transform="translate(-323.59 -64.74)"/><path class="cls-114" d="M402.28,130.26s-8.92,20.5-8.63,29.89c0,0,6-4.25,7.41-10.22C401.06,149.93,397.74,138.85,402.28,130.26Z" transform="translate(-323.59 -64.74)"/><path class="cls-115" d="M422.65,297.51s2.06,4.73,2.37,5.24a8.63,8.63,0,0,0,2.38,1.32s-.64,14.4-.42,23.75c.19,8.34,5.18,37.53,5.18,37.53s-3.4-27.48-4-38.51,2.21-24.08,2.21-24.08L426.51,298l-.69,4.24Z" transform="translate(-323.59 -64.74)"/><path class="cls-116" d="M497.83,326.24s1-6.16,2.32-10.71,8.08-12,8.08-12a112,112,0,0,1-4.55,13.27A39,39,0,0,1,497.83,326.24Z" transform="translate(-323.59 -64.74)"/><path class="cls-117" d="M432.16,365.35s-2.46,3.7-10.92,6.61a116,116,0,0,1-18.16,4.57s7.1-.53,17.46-2.3,13.19-5.33,13.19-5.33S433.73,366.4,432.16,365.35Z" transform="translate(-323.59 -64.74)"/><path class="cls-118" d="M370.76,167.58s-2.56-13.63-6.3-19.51-10.55-19.24-10.55-19.24l-1.17-3.37s-.22-17.82,2.34-24.92c0,0-7.23,16.45-5.68,28.92l2.4.38s4.75,10.48,10.26,17.91S370.76,167.58,370.76,167.58Z" transform="translate(-323.59 -64.74)"/><path class="cls-119" d="M351.8,96.39s-1.08-3,1.45-6.81,20-18.7,29.87-21.5a102.74,102.74,0,0,1,20.21-3.29s-13.42-.69-23.24,3.28S350.47,87.78,349.9,90.43,351.8,96.39,351.8,96.39Z" transform="translate(-323.59 -64.74)"/><path class="cls-120" d="M347.12,202.85s-18,16.92-20.22,22.15,2.33,49.63,2.33,49.63-6.14-43.82-5.6-49S347.12,202.85,347.12,202.85Z" transform="translate(-323.59 -64.74)"/><g class="cls-71"><path class="cls-72" d="M468.46,174.1c-1.16,2.62-4.61,10.43-7,16.07-.29.69.72,1.35,2.15,1.41l19.38.71c1.19,0,2.26-.36,2.51-.94l6.8-16.32c.28-.67-.64-1.31-2-1.4-3.15-.23-9.41-.53-19.59-.45A2.6,2.6,0,0,0,468.46,174.1Z" transform="translate(-323.59 -64.74)"/><path class="cls-73" d="M483.21,192.41H483l-19.37-.71a3.86,3.86,0,0,1-1.91-.51c-.46-.3-.63-.68-.48-1.05,2.31-5.52,5.64-13.07,7-16.06h0a2.83,2.83,0,0,1,2.52-1c9.91-.08,16.15.19,19.63.44a3.54,3.54,0,0,1,1.79.55c.42.29.57.65.42,1l-6.8,16.31C485.53,192,484.44,192.41,483.21,192.41Zm-14.5-18.28h0c-1.33,3-4.66,10.54-7,16.06-.13.3,0,.61.38.85a3.12,3.12,0,0,0,1.54.41l19.38.71c1.07,0,2-.32,2.24-.84l6.8-16.31c.12-.29,0-.58-.34-.82a2.93,2.93,0,0,0-1.45-.44c-3.46-.25-9.67-.52-19.55-.44-1,0-1.83.34-2,.82Z" transform="translate(-323.59 -64.74)"/></g><path class="cls-70" d="M464.73,202.43l-.37,1.72a120.25,120.25,0,0,1,14.19,1.37l.28-1.69A77.27,77.27,0,0,0,464.73,202.43Z" transform="translate(-323.59 -64.74)"/><polygon class="cls-70" points="138.12 130.19 137.51 133.26 159.34 135.77 160.16 132.76 138.12 130.19"/><polygon class="cls-121" points="137.22 116.94 164.99 141.85 160.01 160.9 132.68 137.88 137.22 116.94"/></g></g></g></svg>