<svg id="Object" xmlns="http://www.w3.org/2000/svg" viewBox="0 0 500.95 697.38"><defs><style>.cls-1{fill:#dfefff;}.cls-2{fill:#0e0e52;}.cls-3{fill:#d02f68;}</style></defs><title>selectPlan</title><path class="cls-1" d="M640.15,460.2a79.16,79.16,0,1,0-117.79,69.05L524,476.74a38.93,38.93,0,0,1,38.93-38.91h2.21a30.66,30.66,0,0,1,30.67,30.66V531.2A79.13,79.13,0,0,0,640.15,460.2Z" transform="translate(-310.53 -212.31)"/><path class="cls-2" d="M595.82,468.49a30.66,30.66,0,0,0-30.67-30.66h-2.21A38.93,38.93,0,0,0,524,476.74l-1.65,52.51L518.72,645c-.83,3.57-1.3,84-1.3,84-6.8-6.94-14.37-14.87-21.17-22.46-15.88-17.71-45.06-29.64-64.45-31.85-10.21-1.17-18,.23-23.2,4.13a49.91,49.91,0,0,0-4.82,4.21c-10,9.86-17.56,25.78-10.57,37.45,3,5.09,8.21,8.48,13.73,12,7.3,4.74,19.61,9.87,28.87,21.67C451.3,774,487.19,818.29,509.24,842c4.59,2.85,14.29,12.53,18.88,15,13.92,8.89,25.29,17.26,29.23,21.79,3.08,3.53,21.3,12.86,21.3,12.86,14.73,9.33,41.54,18,72.51,18s59,1.85,79.74-16.41H732l.55-1.38c21.11-19.33,34.24-46.13,34.24-75.75V674.46c0-7-1.53-30.21-21.1-37.2a34.63,34.63,0,0,0-25.87,1.19l-1.77.08-.54,0c-3.41-12.78-11.9-21-24.48-23.22-15.18-2.63-25.7,1.9-32,6.49-6.29-13.52-18.9-20.56-36-19.13-12.8,1.08-22.32,7.37-29.23,15.66V468.49Z" transform="translate(-310.53 -212.31)"/><path class="cls-2" d="M737.62,591.62l15.71,17.49a7.2,7.2,0,0,0,11.16-.49,248.59,248.59,0,0,0,47-145.83c0-138.13-112.37-250.48-250.47-250.48a258.7,258.7,0,0,0-28.59,1.59C417.15,226.74,324.46,319.77,312,435.12a249.87,249.87,0,0,0,45.47,173.5,7.22,7.22,0,0,0,11.18.51l15.69-17.47a7.16,7.16,0,0,0,.51-8.88,212,212,0,0,1-37-126.26C351,345.76,440.19,255,550.82,249.79c122.32-6,223.42,92,223.42,213a212.31,212.31,0,0,1-37.17,120A7.16,7.16,0,0,0,737.62,591.62Z" transform="translate(-310.53 -212.31)"/><path class="cls-3" d="M667.21,513.26l16.63,18.51a7.24,7.24,0,0,0,11.86-1.61,148.46,148.46,0,0,0,16-67.37c0-71-50.38-133-119.84-147.53a150.23,150.23,0,0,0-61.85,0c-69.41,14.54-119.79,76.57-119.79,147.53a148.63,148.63,0,0,0,16,67.37,7.26,7.26,0,0,0,11.88,1.61l16.61-18.51a7.18,7.18,0,0,0,1.25-7.59,112.64,112.64,0,0,1-8.53-42.88A113.5,113.5,0,1,1,666,505.67,7.22,7.22,0,0,0,667.21,513.26Z" transform="translate(-310.53 -212.31)"/></svg>