<svg xmlns="http://www.w3.org/2000/svg" viewBox="0 0 1122 1122"><defs><style>.cls-1{fill:#fff;}.cls-2{fill:none;}.cls-3{fill:#d02f68;}.cls-4{fill:#aad4c8;}.cls-5{fill:#0e0e52;}</style></defs><title>trusted</title><g id="Bg"><rect class="cls-1" width="1122" height="1122"/></g><g id="Object"><path class="cls-2" d="M606.89,647.67l-17.52,17.24,18.24,18.51,18.5-18.24L609,647.79C608.28,647.71,607.58,647.75,606.89,647.67Z"/><path class="cls-2" d="M486,664.16l18.23,18.5,18.52-18.23-10.88-11c-5.23.56-10.47.74-15.73.79Z"/><path class="cls-3" d="M344.84,588.14c2.12,2.47,4.28,4.93,6.61,7.27,1.72,1.75,3.51,3.35,5.31,5,.62.57,1.22,1.18,1.85,1.73l9.47,9.62,100-98.55,61.64-60.76.06.05,26.53-26.15,1-1a10.33,10.33,0,0,0,1.29-2.18c.92-.66,1.84-1.31,2.74-2l1.78-.68A10.38,10.38,0,0,1,580,417.43l.27.28L654.92,494l15,15.31A22.87,22.87,0,1,0,703.15,478l-.52-.55-93.52-95.62,0,0-.25-.25A160.77,160.77,0,0,0,479,334.6a161.6,161.6,0,0,0-17.75,2.75,46.88,46.88,0,0,1-31.79-14L408.57,302.2,274.35,434.47l18.94,19.24,11.8,12a47,47,0,0,1,8.2,27.3l-.14,2.23a136.79,136.79,0,0,0,1.07,24.36,133,133,0,0,0,28,65.4l-.23.23Z"/><polygon class="cls-4" points="680.3 757.37 680.3 757.37 680.29 757.36 680.3 757.37"/><path class="cls-3" d="M418.47,662.85l.09-.09.89.91L498.8,585.5a158.62,158.62,0,0,1-14.29-22.4l-83.38,82.16Z"/><path class="cls-3" d="M511.91,653.38l10.88,11,32.61-32.14a159.91,159.91,0,0,1-22.94-13.86l-36.28,35.74C501.44,654.12,506.68,653.94,511.91,653.38Z"/><rect class="cls-3" x="558.16" y="677.7" width="47.1" height="25.98" transform="translate(-317.43 607.06) rotate(-44.58)"/><path class="cls-3" d="M626.11,665.18l17.5-17.24a161.75,161.75,0,0,1-34.64-.15Z"/><polygon class="cls-3" points="522.02 767.76 555.57 734.7 537.31 716.2 503.78 749.24 522.02 767.76"/><polygon class="cls-3" points="470.74 715.71 504.27 682.66 486.04 664.16 452.5 697.2 470.74 715.71"/><path class="cls-3" d="M784.38,654.64,744.82,614.5l-33.52,33,39.14,39.72.74.85.81.75a23.56,23.56,0,0,0,33.14-33.47l-.34-.39Z"/><path class="cls-3" d="M603.78,783.65l-15.17-15.4-33.54,33,13.75,14,1.51,1.68,1.67,1.55A23.6,23.6,0,0,0,604.11,784l-.15-.19Z"/><path class="cls-3" d="M640.65,717,607.12,750l39.7,40.32.78.84.83.76a23.52,23.52,0,0,0,32.69-33.8l-.83-.76h0v0l.09-.08Z"/><path class="cls-3" d="M743.41,717.18l-50.72-51.47-33.55,33,50.91,51.64.54.63a23.59,23.59,0,0,0,33.62-33.11Z"/><path class="cls-5" d="M828.4,451.23l19.25-19L715.36,298l-21.19,20.89a46.94,46.94,0,0,1-32,13.49,157.81,157.81,0,0,0-17.71-3,160.62,160.62,0,0,0-90,16.11,159.48,159.48,0,0,1,54.33,36.08l.25.25,0,0,93.52,95.62.52.55a22.87,22.87,0,1,1-33.23,31.39l-15-15.31-74.61-76.33-.27-.28a10.38,10.38,0,0,0-16.87,3.08l-1.78.68c-.9.66-1.82,1.31-2.74,2a10.33,10.33,0,0,1-1.29,2.18l-1,1-26.53,26.15-.06-.05-61.64,60.76-100,98.55L334.41,644.9l-.4.36-.36.38a23.56,23.56,0,0,0,32.62,34l.83-.76.78-.83,33.25-32.76,83.38-82.16a158.62,158.62,0,0,0,14.29,22.4l-79.35,78.17-45,44.36-.82.72a23.6,23.6,0,1,0,33.13,33.61l.56-.63L452.5,697.2l33.54-33,10.14-10,36.28-35.74a159.91,159.91,0,0,0,22.94,13.86l-32.61,32.14-18.52,18.23-33.53,33.05-33.86,33.35.09.08-.85.78a23.52,23.52,0,0,0,32.2,34.28l.83-.75.77-.84,33.86-33.37,33.53-33L555.82,698l33.55-33.06,17.52-17.24c.69.08,1.39,0,2.08.12a161.75,161.75,0,0,0,34.64.15l-17.5,17.24-18.5,18.24-33.55,33.06L555.57,734.7,522,767.76l-8.95,8.79-.17.16-.17.18a23.6,23.6,0,0,0,31.61,35l1.7-1.51,1.53-1.67,7.49-7.38,33.54-33L607.12,750,640.65,717l18.5-18.22,33.56-33,7.35-7.28.1.1,11.14-11,33.52-33,16.08-15.83c2.49-2.11,4.91-4.3,7.29-6.61s4.55-4.72,6.7-7.18L777.8,582l-.22-.23a133.31,133.31,0,0,0,28.94-65,136.89,136.89,0,0,0,1.42-24.35l-.1-2.23A46.78,46.78,0,0,1,816.43,463Z"/></g></svg>